<svg width="426" height="438" viewBox="0 0 426 438" fill="none" xmlns="http://www.w3.org/2000/svg">
<path d="M99.3 93.732H134.289L232.194 321H185.97L164.784 268.998H66.237L45.693 321H0.432L99.3 93.732ZM150.66 234.33L115.671 141.882L80.04 234.33H150.66ZM251.793 285.69L339.426 199.662C346.488 192.814 352.052 185.966 356.118 179.118C360.398 172.056 362.538 164.031 362.538 155.043C362.538 144.343 359.007 135.89 351.945 129.684C345.097 123.264 336.537 120.054 326.265 120.054C315.351 120.054 306.577 123.799 299.943 131.289C293.309 138.565 289.243 147.767 287.745 158.895L250.188 153.117C251.258 143.701 253.933 135.034 258.213 127.116C262.493 119.198 267.95 112.35 274.584 106.572C281.218 100.794 288.922 96.3 297.696 93.09C306.684 89.666 316.421 87.954 326.907 87.954C336.751 87.954 346.167 89.345 355.155 92.127C364.357 94.909 372.489 99.189 379.551 104.967C386.613 110.531 392.177 117.486 396.243 125.832C400.523 133.964 402.663 143.487 402.663 154.401C402.663 161.677 401.7 168.525 399.774 174.945C397.848 181.151 395.173 187.036 391.749 192.6C388.539 198.164 384.687 203.514 380.193 208.65C375.913 213.572 371.205 218.387 366.069 223.095L300.585 285.69H402.984V321H251.793V285.69Z" fill="black"/>
<path d="M99.3 93.732V90.732H97.3335L96.549 92.5353L99.3 93.732ZM134.289 93.732L137.044 92.5451L136.263 90.732H134.289V93.732ZM232.194 321V324H236.753L234.949 319.813L232.194 321ZM185.97 321L183.192 322.132L183.953 324H185.97V321ZM164.784 268.998L167.562 267.866L166.801 265.998H164.784V268.998ZM66.237 268.998V265.998H64.1966L63.4468 267.896L66.237 268.998ZM45.693 321V324H47.7334L48.4832 322.102L45.693 321ZM0.432 321L-2.31896 319.803L-4.14467 324H0.432V321ZM150.66 234.33V237.33H155.003L153.466 233.268L150.66 234.33ZM115.671 141.882L118.477 140.82L115.696 133.474L112.872 140.803L115.671 141.882ZM80.04 234.33L77.2407 233.251L75.6686 237.33H80.04V234.33ZM99.3 96.732H134.289V90.732H99.3V96.732ZM131.534 94.9189L229.439 322.187L234.949 319.813L137.044 92.5451L131.534 94.9189ZM232.194 318H185.97V324H232.194V318ZM188.748 319.868L167.562 267.866L162.006 270.13L183.192 322.132L188.748 319.868ZM164.784 265.998H66.237V271.998H164.784V265.998ZM63.4468 267.896L42.9028 319.898L48.4832 322.102L69.0272 270.1L63.4468 267.896ZM45.693 318H0.432V324H45.693V318ZM3.18296 322.197L102.051 94.9287L96.549 92.5353L-2.31896 319.803L3.18296 322.197ZM153.466 233.268L118.477 140.82L112.865 142.944L147.854 235.392L153.466 233.268ZM112.872 140.803L77.2407 233.251L82.8393 235.409L118.47 142.961L112.872 140.803ZM80.04 237.33H150.66V231.33H80.04V237.33ZM251.793 285.69L249.691 283.549L248.793 284.431V285.69H251.793ZM339.426 199.662L337.337 197.508L337.331 197.515L337.324 197.521L339.426 199.662ZM356.118 179.118L353.552 177.563L353.545 177.575L353.538 177.586L356.118 179.118ZM351.945 129.684L349.893 131.873L349.928 131.906L349.964 131.937L351.945 129.684ZM299.943 131.289L302.159 133.31L302.174 133.294L302.188 133.278L299.943 131.289ZM287.745 158.895L287.288 161.86L290.31 162.325L290.718 159.295L287.745 158.895ZM250.188 153.117L247.207 152.778L246.881 155.644L249.731 156.082L250.188 153.117ZM258.213 127.116L255.573 125.689L258.213 127.116ZM274.584 106.572L272.613 104.31V104.31L274.584 106.572ZM297.696 93.09L298.726 95.9074L298.745 95.9005L298.764 95.8934L297.696 93.09ZM355.155 92.127L354.268 94.9928L354.277 94.9958L354.286 94.9986L355.155 92.127ZM379.551 104.967L377.651 107.289L377.672 107.306L377.694 107.323L379.551 104.967ZM396.243 125.832L393.546 127.146L393.566 127.188L393.588 127.229L396.243 125.832ZM399.774 174.945L402.639 175.834L402.643 175.821L402.647 175.807L399.774 174.945ZM391.749 192.6L389.194 191.028L389.171 191.064L389.15 191.101L391.749 192.6ZM380.193 208.65L377.935 206.674L377.929 206.681L380.193 208.65ZM366.069 223.095L364.041 220.884L364.018 220.905L363.996 220.926L366.069 223.095ZM300.585 285.69L298.512 283.521L293.104 288.69H300.585V285.69ZM402.984 285.69H405.984V282.69H402.984V285.69ZM402.984 321V324H405.984V321H402.984ZM251.793 321H248.793V324H251.793V321ZM253.894 287.831L341.527 201.803L337.324 197.521L249.691 283.549L253.894 287.831ZM341.514 201.816C348.724 194.824 354.468 187.772 358.697 180.65L353.538 177.586C349.635 184.16 344.251 190.804 337.337 197.508L341.514 201.816ZM358.683 180.673C363.272 173.101 365.538 164.529 365.538 155.043H359.538C359.538 163.533 357.523 171.011 353.552 177.563L358.683 180.673ZM365.538 155.043C365.538 143.613 361.728 134.288 353.925 127.43L349.964 131.937C356.285 137.492 359.538 145.073 359.538 155.043H365.538ZM353.996 127.495C346.538 120.503 337.22 117.054 326.265 117.054V123.054C335.853 123.054 343.655 126.025 349.893 131.873L353.996 127.495ZM326.265 117.054C314.579 117.054 304.956 121.104 297.697 129.3L302.188 133.278C308.197 126.494 316.122 123.054 326.265 123.054V117.054ZM297.726 129.268C290.625 137.056 286.339 146.85 284.771 158.495L290.718 159.295C292.146 148.684 295.992 140.074 302.159 133.31L297.726 129.268ZM288.201 155.93L250.644 150.152L249.731 156.082L287.288 161.86L288.201 155.93ZM253.168 153.456C254.197 144.4 256.764 136.105 260.852 128.543L255.573 125.689C251.102 133.963 248.318 143.002 247.207 152.778L253.168 153.456ZM260.852 128.543C264.965 120.933 270.197 114.371 276.554 108.834L272.613 104.31C265.702 110.329 260.02 117.462 255.573 125.689L260.852 128.543ZM276.554 108.834C282.894 103.312 290.275 98.9992 298.726 95.9074L296.665 90.2726C287.568 93.6008 279.541 98.2762 272.613 104.31L276.554 108.834ZM298.764 95.8934C307.381 92.6106 316.753 90.954 326.907 90.954V84.954C316.089 84.954 305.986 86.7213 296.628 90.2865L298.764 95.8934ZM326.907 90.954C336.464 90.954 345.58 92.3038 354.268 94.9928L356.042 89.2611C346.753 86.3862 337.037 84.954 326.907 84.954V90.954ZM354.286 94.9986C363.132 97.673 370.909 101.773 377.651 107.289L381.45 102.645C374.068 96.6048 365.581 92.145 356.023 89.2553L354.286 94.9986ZM377.694 107.323C384.389 112.598 389.671 119.193 393.546 127.146L398.94 124.518C394.682 115.779 388.836 108.464 381.407 102.611L377.694 107.323ZM393.588 127.229C397.602 134.856 399.663 143.883 399.663 154.401H405.663C405.663 143.091 403.443 133.072 398.897 124.435L393.588 127.229ZM399.663 154.401C399.663 161.41 398.735 167.965 396.9 174.083L402.647 175.807C404.664 169.085 405.663 161.944 405.663 154.401H399.663ZM396.908 174.056C395.057 180.021 392.487 185.676 389.194 191.028L394.304 194.172C397.858 188.396 400.638 182.281 402.639 175.834L396.908 174.056ZM389.15 191.101C386.044 196.485 382.308 201.677 377.935 206.674L382.45 210.626C387.065 205.351 391.033 199.843 394.347 194.099L389.15 191.101ZM377.929 206.681C373.728 211.513 369.1 216.247 364.041 220.884L368.096 225.306C373.31 220.527 378.097 215.631 382.456 210.619L377.929 206.681ZM363.996 220.926L298.512 283.521L302.658 287.859L368.142 225.264L363.996 220.926ZM300.585 288.69H402.984V282.69H300.585V288.69ZM399.984 285.69V321H405.984V285.69H399.984ZM402.984 318H251.793V324H402.984V318ZM254.793 321V285.69H248.793V321H254.793Z" fill="url(#paint0_linear_19_9)"/>
<defs>
<linearGradient id="paint0_linear_19_9" x1="214.5" y1="0" x2="214.5" y2="438" gradientUnits="userSpaceOnUse">
<stop stop-color="#FF0000"/>
<stop offset="1" stop-color="#4200FF"/>
</linearGradient>
</defs>
</svg>
