<svg width="512" height="512" viewBox="0 0 512 512" fill="none" xmlns="http://www.w3.org/2000/svg">
<rect width="512" height="512" fill="#F4F4F5"/>
<path d="M140.3 130.732H175.289L273.194 358H226.97L205.784 305.998H107.237L86.693 358H41.432L140.3 130.732ZM191.66 271.33L156.671 178.882L121.04 271.33H191.66ZM292.793 322.69L380.426 236.662C387.488 229.814 393.052 222.966 397.118 216.118C401.398 209.056 403.538 201.031 403.538 192.043C403.538 181.343 400.007 172.89 392.945 166.684C386.097 160.264 377.537 157.054 367.265 157.054C356.351 157.054 347.577 160.799 340.943 168.289C334.309 175.565 330.243 184.767 328.745 195.895L291.188 190.117C292.258 180.701 294.933 172.034 299.213 164.116C303.493 156.198 308.95 149.35 315.584 143.572C322.218 137.794 329.922 133.3 338.696 130.09C347.684 126.666 357.421 124.954 367.907 124.954C377.751 124.954 387.167 126.345 396.155 129.127C405.357 131.909 413.489 136.189 420.551 141.967C427.613 147.531 433.177 154.486 437.243 162.832C441.523 170.964 443.663 180.487 443.663 191.401C443.663 198.677 442.7 205.525 440.774 211.945C438.848 218.151 436.173 224.036 432.749 229.6C429.539 235.164 425.687 240.514 421.193 245.65C416.913 250.572 412.205 255.387 407.069 260.095L341.585 322.69H443.984V358H292.793V322.69Z" fill="black"/>
<path d="M140.3 130.732V127.732H138.334L137.549 129.535L140.3 130.732ZM175.289 130.732L178.044 129.545L177.263 127.732H175.289V130.732ZM273.194 358V361H277.753L275.949 356.813L273.194 358ZM226.97 358L224.192 359.132L224.953 361H226.97V358ZM205.784 305.998L208.562 304.866L207.801 302.998H205.784V305.998ZM107.237 305.998V302.998H105.197L104.447 304.896L107.237 305.998ZM86.693 358V361H88.7334L89.4832 359.102L86.693 358ZM41.432 358L38.681 356.803L36.8553 361H41.432V358ZM191.66 271.33V274.33H196.003L194.466 270.268L191.66 271.33ZM156.671 178.882L159.477 177.82L156.696 170.474L153.872 177.803L156.671 178.882ZM121.04 271.33L118.241 270.251L116.669 274.33H121.04V271.33ZM140.3 133.732H175.289V127.732H140.3V133.732ZM172.534 131.919L270.439 359.187L275.949 356.813L178.044 129.545L172.534 131.919ZM273.194 355H226.97V361H273.194V355ZM229.748 356.868L208.562 304.866L203.006 307.13L224.192 359.132L229.748 356.868ZM205.784 302.998H107.237V308.998H205.784V302.998ZM104.447 304.896L83.9028 356.898L89.4832 359.102L110.027 307.1L104.447 304.896ZM86.693 355H41.432V361H86.693V355ZM44.183 359.197L143.051 131.929L137.549 129.535L38.681 356.803L44.183 359.197ZM194.466 270.268L159.477 177.82L153.865 179.944L188.854 272.392L194.466 270.268ZM153.872 177.803L118.241 270.251L123.839 272.409L159.47 179.961L153.872 177.803ZM121.04 274.33H191.66V268.33H121.04V274.33ZM292.793 322.69L290.691 320.549L289.793 321.431V322.69H292.793ZM380.426 236.662L378.337 234.508L378.331 234.515L378.324 234.521L380.426 236.662ZM397.118 216.118L394.552 214.563L394.545 214.575L394.538 214.586L397.118 216.118ZM392.945 166.684L390.893 168.873L390.928 168.906L390.964 168.937L392.945 166.684ZM340.943 168.289L343.159 170.31L343.174 170.294L343.188 170.278L340.943 168.289ZM328.745 195.895L328.288 198.86L331.31 199.325L331.718 196.295L328.745 195.895ZM291.188 190.117L288.207 189.778L287.881 192.644L290.731 193.082L291.188 190.117ZM299.213 164.116L296.573 162.689L299.213 164.116ZM315.584 143.572L313.613 141.31V141.31L315.584 143.572ZM338.696 130.09L339.726 132.907L339.745 132.901L339.764 132.893L338.696 130.09ZM396.155 129.127L395.268 131.993L395.277 131.996L395.286 131.999L396.155 129.127ZM420.551 141.967L418.651 144.289L418.672 144.306L418.694 144.323L420.551 141.967ZM437.243 162.832L434.546 164.146L434.566 164.188L434.588 164.229L437.243 162.832ZM440.774 211.945L443.639 212.834L443.643 212.821L443.647 212.807L440.774 211.945ZM432.749 229.6L430.194 228.028L430.171 228.064L430.15 228.101L432.749 229.6ZM421.193 245.65L418.935 243.674L418.929 243.681L421.193 245.65ZM407.069 260.095L405.041 257.884L405.018 257.905L404.996 257.926L407.069 260.095ZM341.585 322.69L339.512 320.521L334.104 325.69H341.585V322.69ZM443.984 322.69H446.984V319.69H443.984V322.69ZM443.984 358V361H446.984V358H443.984ZM292.793 358H289.793V361H292.793V358ZM294.894 324.831L382.527 238.803L378.324 234.521L290.691 320.549L294.894 324.831ZM382.514 238.816C389.724 231.824 395.468 224.772 399.697 217.65L394.538 214.586C390.635 221.16 385.251 227.804 378.337 234.508L382.514 238.816ZM399.683 217.673C404.272 210.101 406.538 201.529 406.538 192.043H400.538C400.538 200.533 398.523 208.011 394.552 214.563L399.683 217.673ZM406.538 192.043C406.538 180.613 402.728 171.288 394.925 164.43L390.964 168.937C397.285 174.492 400.538 182.073 400.538 192.043H406.538ZM394.996 164.495C387.538 157.503 378.22 154.054 367.265 154.054V160.054C376.853 160.054 384.655 163.025 390.893 168.873L394.996 164.495ZM367.265 154.054C355.579 154.054 345.956 158.104 338.697 166.3L343.188 170.278C349.197 163.494 357.122 160.054 367.265 160.054V154.054ZM338.726 166.268C331.625 174.056 327.339 183.85 325.771 195.495L331.718 196.295C333.146 185.684 336.992 177.074 343.159 170.31L338.726 166.268ZM329.201 192.93L291.644 187.152L290.731 193.082L328.288 198.86L329.201 192.93ZM294.168 190.456C295.197 181.4 297.764 173.105 301.852 165.543L296.573 162.689C292.102 170.963 289.318 180.002 288.207 189.778L294.168 190.456ZM301.852 165.543C305.965 157.933 311.197 151.371 317.554 145.834L313.613 141.31C306.702 147.329 301.02 154.462 296.573 162.689L301.852 165.543ZM317.554 145.834C323.894 140.312 331.275 135.999 339.726 132.907L337.665 127.273C328.568 130.601 320.541 135.276 313.613 141.31L317.554 145.834ZM339.764 132.893C348.381 129.611 357.753 127.954 367.907 127.954V121.954C357.089 121.954 346.986 123.721 337.628 127.287L339.764 132.893ZM367.907 127.954C377.464 127.954 386.58 129.304 395.268 131.993L397.042 126.261C387.753 123.386 378.037 121.954 367.907 121.954V127.954ZM395.286 131.999C404.132 134.673 411.909 138.773 418.651 144.289L422.45 139.645C415.068 133.605 406.581 129.145 397.023 126.255L395.286 131.999ZM418.694 144.323C425.389 149.598 430.671 156.193 434.546 164.146L439.94 161.518C435.682 152.779 429.836 145.464 422.407 139.611L418.694 144.323ZM434.588 164.229C438.602 171.856 440.663 180.883 440.663 191.401H446.663C446.663 180.091 444.443 170.072 439.897 161.435L434.588 164.229ZM440.663 191.401C440.663 198.41 439.735 204.965 437.9 211.083L443.647 212.807C445.664 206.085 446.663 198.944 446.663 191.401H440.663ZM437.908 211.056C436.057 217.021 433.487 222.676 430.194 228.028L435.304 231.172C438.858 225.396 441.638 219.281 443.639 212.834L437.908 211.056ZM430.15 228.101C427.044 233.485 423.308 238.677 418.935 243.674L423.45 247.626C428.065 242.351 432.033 236.843 435.347 231.099L430.15 228.101ZM418.929 243.681C414.728 248.513 410.1 253.247 405.041 257.884L409.096 262.306C414.31 257.527 419.097 252.631 423.456 247.619L418.929 243.681ZM404.996 257.926L339.512 320.521L343.658 324.859L409.142 262.264L404.996 257.926ZM341.585 325.69H443.984V319.69H341.585V325.69ZM440.984 322.69V358H446.984V322.69H440.984ZM443.984 355H292.793V361H443.984V355ZM295.793 358V322.69H289.793V358H295.793Z" fill="url(#paint0_linear_2_36)"/>
<defs>
<linearGradient id="paint0_linear_2_36" x1="255.5" y1="37" x2="255.5" y2="475" gradientUnits="userSpaceOnUse">
<stop stop-color="#FF0000"/>
<stop offset="1" stop-color="#4200FF"/>
</linearGradient>
</defs>
</svg>
