<svg width="512" height="512" viewBox="0 0 512 512" fill="none" xmlns="http://www.w3.org/2000/svg">
<rect width="512" height="512" fill="#F4F4F5"/>
<path d="M80.5 195.26H97.395L144.67 305H122.35L112.12 279.89H64.535L54.615 305H32.76L80.5 195.26ZM105.3 263.15L88.405 218.51L71.2 263.15H105.3ZM154.133 287.95L196.448 246.41C199.858 243.103 202.545 239.797 204.508 236.49C206.575 233.08 207.608 229.205 207.608 224.865C207.608 219.698 205.903 215.617 202.493 212.62C199.187 209.52 195.053 207.97 190.093 207.97C184.823 207.97 180.587 209.778 177.383 213.395C174.18 216.908 172.217 221.352 171.493 226.725L153.358 223.935C153.875 219.388 155.167 215.203 157.233 211.38C159.3 207.557 161.935 204.25 165.138 201.46C168.342 198.67 172.062 196.5 176.298 194.95C180.638 193.297 185.34 192.47 190.403 192.47C195.157 192.47 199.703 193.142 204.043 194.485C208.487 195.828 212.413 197.895 215.823 200.685C219.233 203.372 221.92 206.73 223.883 210.76C225.95 214.687 226.983 219.285 226.983 224.555C226.983 228.068 226.518 231.375 225.588 234.475C224.658 237.472 223.367 240.313 221.713 243C220.163 245.687 218.303 248.27 216.133 250.75C214.067 253.127 211.793 255.452 209.313 257.725L177.693 287.95H227.138V305H154.133V287.95ZM250.133 195.26H280.668L309.188 273.225H309.653L337.863 195.26H368.553V305H349.178V216.805H348.868L315.543 305H301.903L269.043 216.805H268.733V305H250.133V195.26ZM427.906 192.47C432.659 192.47 437.154 193.142 441.391 194.485C445.628 195.828 449.296 197.792 452.396 200.375C455.599 202.958 458.079 206.11 459.836 209.83C461.696 213.447 462.626 217.58 462.626 222.23C462.626 228.637 461.024 233.958 457.821 238.195C454.618 242.432 450.536 245.377 445.576 247.03V247.34C448.469 248.063 451.156 249.252 453.636 250.905C456.116 252.455 458.286 254.418 460.146 256.795C462.006 259.068 463.453 261.652 464.486 264.545C465.623 267.438 466.191 270.59 466.191 274C466.191 279.477 465.158 284.333 463.091 288.57C461.128 292.703 458.389 296.217 454.876 299.11C451.466 302.003 447.436 304.173 442.786 305.62C438.136 307.067 433.176 307.79 427.906 307.79C422.636 307.79 417.676 307.067 413.026 305.62C408.376 304.173 404.294 302.003 400.781 299.11C397.371 296.217 394.633 292.703 392.566 288.57C390.603 284.333 389.621 279.477 389.621 274C389.621 270.487 390.189 267.232 391.326 264.235C392.463 261.238 393.961 258.603 395.821 256.33C397.784 254.057 400.006 252.197 402.486 250.75C404.966 249.2 407.549 248.063 410.236 247.34V247.03C405.276 245.273 401.194 242.432 397.991 238.505C394.788 234.578 393.186 229.412 393.186 223.005C393.186 218.355 394.064 214.17 395.821 210.45C397.681 206.627 400.161 203.423 403.261 200.84C406.464 198.153 410.133 196.087 414.266 194.64C418.503 193.193 423.049 192.47 427.906 192.47ZM427.906 207.815C423.256 207.815 419.433 209.21 416.436 212C413.543 214.79 412.096 218.562 412.096 223.315C412.096 227.758 413.491 231.53 416.281 234.63C419.174 237.73 423.049 239.28 427.906 239.28C430.076 239.28 432.143 238.867 434.106 238.04C436.069 237.213 437.774 236.077 439.221 234.63C440.668 233.183 441.804 231.478 442.631 229.515C443.458 227.552 443.871 225.485 443.871 223.315C443.871 220.938 443.406 218.82 442.476 216.96C441.649 214.997 440.461 213.343 438.911 212C437.464 210.657 435.759 209.623 433.796 208.9C431.936 208.177 429.973 207.815 427.906 207.815ZM427.906 255.09C425.219 255.09 422.688 255.555 420.311 256.485C418.038 257.415 416.023 258.707 414.266 260.36C412.613 261.91 411.269 263.873 410.236 266.25C409.306 268.523 408.841 271.055 408.841 273.845C408.841 279.632 410.649 284.127 414.266 287.33C417.883 290.533 422.429 292.135 427.906 292.135C433.279 292.135 437.774 290.533 441.391 287.33C445.008 284.127 446.816 279.632 446.816 273.845C446.816 271.158 446.299 268.678 445.266 266.405C444.336 264.028 442.993 262.013 441.236 260.36C439.583 258.707 437.568 257.415 435.191 256.485C432.918 255.555 430.489 255.09 427.906 255.09Z" fill="black"/>
<path d="M80.5 195.26V193.76H79.5168L79.1245 194.662L80.5 195.26ZM97.395 195.26L98.7726 194.667L98.3821 193.76H97.395V195.26ZM144.67 305V306.5H146.949L146.048 304.407L144.67 305ZM122.35 305L120.961 305.566L121.341 306.5H122.35V305ZM112.12 279.89L113.509 279.324L113.129 278.39H112.12V279.89ZM64.535 279.89V278.39H63.5148L63.1399 279.339L64.535 279.89ZM54.615 305V306.5H55.6352L56.0101 305.551L54.615 305ZM32.76 305L31.3845 304.402L30.4717 306.5H32.76V305ZM105.3 263.15V264.65H107.472L106.703 262.619L105.3 263.15ZM88.405 218.51L89.8079 217.979L88.4177 214.306L87.0054 217.971L88.405 218.51ZM71.2 263.15L69.8004 262.611L69.0143 264.65H71.2V263.15ZM80.5 196.76H97.395V193.76H80.5V196.76ZM96.0174 195.853L143.292 305.593L146.048 304.407L98.7726 194.667L96.0174 195.853ZM144.67 303.5H122.35V306.5H144.67V303.5ZM123.739 304.434L113.509 279.324L110.731 280.456L120.961 305.566L123.739 304.434ZM112.12 278.39H64.535V281.39H112.12V278.39ZM63.1399 279.339L53.2199 304.449L56.0101 305.551L65.9301 280.441L63.1399 279.339ZM54.615 303.5H32.76V306.5H54.615V303.5ZM34.1355 305.598L81.8755 195.858L79.1245 194.662L31.3845 304.402L34.1355 305.598ZM106.703 262.619L89.8079 217.979L87.0021 219.041L103.897 263.681L106.703 262.619ZM87.0054 217.971L69.8004 262.611L72.5996 263.689L89.8046 219.049L87.0054 217.971ZM71.2 264.65H105.3V261.65H71.2V264.65ZM154.133 287.95L153.083 286.88L152.633 287.321V287.95H154.133ZM196.448 246.41L195.404 245.333L195.398 245.34L196.448 246.41ZM204.508 236.49L203.226 235.713L203.219 235.724L204.508 236.49ZM202.493 212.62L201.468 213.714L201.485 213.731L201.503 213.747L202.493 212.62ZM177.383 213.395L178.492 214.406L178.499 214.398L178.506 214.39L177.383 213.395ZM171.493 226.725L171.265 228.208L172.776 228.44L172.98 226.925L171.493 226.725ZM153.358 223.935L151.868 223.766L151.705 225.198L153.13 225.418L153.358 223.935ZM157.233 211.38L155.914 210.667V210.667L157.233 211.38ZM165.138 201.46L164.153 200.329L165.138 201.46ZM176.298 194.95L176.814 196.359L176.823 196.355L176.832 196.352L176.298 194.95ZM204.043 194.485L203.6 195.918L203.609 195.921L204.043 194.485ZM215.823 200.685L214.874 201.846L214.884 201.855L214.895 201.863L215.823 200.685ZM223.883 210.76L222.535 211.417L222.545 211.438L222.556 211.459L223.883 210.76ZM225.588 234.475L227.021 234.92L227.023 234.913L227.025 234.906L225.588 234.475ZM221.713 243L220.436 242.214L220.425 242.232L220.414 242.25L221.713 243ZM216.133 250.75L215.005 249.762L215.002 249.766L216.133 250.75ZM209.313 257.725L208.3 256.619L208.288 256.63L208.277 256.641L209.313 257.725ZM177.693 287.95L176.657 286.866L173.953 289.45H177.693V287.95ZM227.138 287.95H228.638V286.45H227.138V287.95ZM227.138 305V306.5H228.638V305H227.138ZM154.133 305H152.633V306.5H154.133V305ZM155.184 289.02L197.499 247.48L195.398 245.34L153.083 286.88L155.184 289.02ZM197.493 247.487C200.977 244.109 203.754 240.7 205.798 237.256L203.219 235.724C201.337 238.894 198.74 242.098 195.404 245.333L197.493 247.487ZM205.791 237.267C208.012 233.602 209.108 229.454 209.108 224.865H206.108C206.108 228.956 205.138 232.558 203.226 235.713L205.791 237.267ZM209.108 224.865C209.108 219.333 207.264 214.816 203.484 211.493L201.503 213.747C204.543 216.418 206.108 220.064 206.108 224.865H209.108ZM203.519 211.526C199.907 208.139 195.395 206.47 190.093 206.47V209.47C194.712 209.47 198.466 210.901 201.468 213.714L203.519 211.526ZM190.093 206.47C184.438 206.47 179.776 208.431 176.261 212.4L178.506 214.39C181.397 211.126 185.209 209.47 190.093 209.47V206.47ZM176.275 212.384C172.838 216.154 170.765 220.893 170.007 226.525L172.98 226.925C173.669 221.81 175.522 217.663 178.492 214.406L176.275 212.384ZM171.722 225.242L153.587 222.452L153.13 225.418L171.265 228.208L171.722 225.242ZM154.849 224.104C155.345 219.738 156.582 215.739 158.553 212.093L155.914 210.667C153.751 214.668 152.405 219.039 151.868 223.766L154.849 224.104ZM158.553 212.093C160.536 208.424 163.059 205.26 166.124 202.591L164.153 200.329C160.811 203.24 158.064 206.689 155.914 210.667L158.553 212.093ZM166.124 202.591C169.18 199.929 172.739 197.85 176.814 196.359L175.783 193.541C171.385 195.15 167.503 197.411 164.153 200.329L166.124 202.591ZM176.832 196.352C180.987 194.769 185.506 193.97 190.403 193.97V190.97C185.174 190.97 180.29 191.824 175.764 193.548L176.832 196.352ZM190.403 193.97C195.013 193.97 199.41 194.621 203.6 195.918L204.487 193.052C199.997 191.662 195.3 190.97 190.403 190.97V193.97ZM203.609 195.921C207.875 197.21 211.624 199.187 214.874 201.846L216.773 199.524C213.203 196.603 209.099 194.446 204.478 193.049L203.609 195.921ZM214.895 201.863C218.122 204.405 220.667 207.583 222.535 211.417L225.232 210.103C223.173 205.877 220.345 202.338 216.752 199.507L214.895 201.863ZM222.556 211.459C224.49 215.133 225.483 219.483 225.483 224.555H228.483C228.483 219.087 227.41 214.24 225.211 210.061L222.556 211.459ZM225.483 224.555C225.483 227.935 225.036 231.095 224.152 234.044L227.025 234.906C228.001 231.655 228.483 228.202 228.483 224.555H225.483ZM224.156 234.03C223.263 236.907 222.024 239.634 220.436 242.214L222.991 243.786C224.71 240.993 226.054 238.037 227.021 234.92L224.156 234.03ZM220.414 242.25C218.916 244.847 217.114 247.351 215.005 249.762L217.262 251.738C219.493 249.189 221.411 246.526 223.013 243.75L220.414 242.25ZM215.002 249.766C212.974 252.097 210.741 254.382 208.3 256.619L210.327 258.831C212.846 256.522 215.159 254.156 217.265 251.734L215.002 249.766ZM208.277 256.641L176.657 286.866L178.73 289.034L210.35 258.809L208.277 256.641ZM177.693 289.45H227.138V286.45H177.693V289.45ZM225.638 287.95V305H228.638V287.95H225.638ZM227.138 303.5H154.133V306.5H227.138V303.5ZM155.633 305V287.95H152.633V305H155.633ZM250.133 195.26V193.76H248.633V195.26H250.133ZM280.668 195.26L282.077 194.745L281.716 193.76H280.668V195.26ZM309.188 273.225L307.779 273.74L308.139 274.725H309.188V273.225ZM309.653 273.225V274.725H310.705L311.063 273.735L309.653 273.225ZM337.863 195.26V193.76H336.811L336.452 194.75L337.863 195.26ZM368.553 195.26H370.053V193.76H368.553V195.26ZM368.553 305V306.5H370.053V305H368.553ZM349.178 305H347.678V306.5H349.178V305ZM349.178 216.805H350.678V215.305H349.178V216.805ZM348.868 216.805V215.305H347.831L347.465 216.275L348.868 216.805ZM315.543 305V306.5H316.58L316.946 305.53L315.543 305ZM301.903 305L300.497 305.524L300.861 306.5H301.903V305ZM269.043 216.805L270.449 216.281L270.085 215.305H269.043V216.805ZM268.733 216.805V215.305H267.233V216.805H268.733ZM268.733 305V306.5H270.233V305H268.733ZM250.133 305H248.633V306.5H250.133V305ZM250.133 196.76H280.668V193.76H250.133V196.76ZM279.259 195.775L307.779 273.74L310.597 272.71L282.077 194.745L279.259 195.775ZM309.188 274.725H309.653V271.725H309.188V274.725ZM311.063 273.735L339.273 195.77L336.452 194.75L308.242 272.715L311.063 273.735ZM337.863 196.76H368.553V193.76H337.863V196.76ZM367.053 195.26V305H370.053V195.26H367.053ZM368.553 303.5H349.178V306.5H368.553V303.5ZM350.678 305V216.805H347.678V305H350.678ZM349.178 215.305H348.868V218.305H349.178V215.305ZM347.465 216.275L314.14 304.47L316.946 305.53L350.271 217.335L347.465 216.275ZM315.543 303.5H301.903V306.5H315.543V303.5ZM303.309 304.476L270.449 216.281L267.637 217.329L300.497 305.524L303.309 304.476ZM269.043 215.305H268.733V218.305H269.043V215.305ZM267.233 216.805V305H270.233V216.805H267.233ZM268.733 303.5H250.133V306.5H268.733V303.5ZM251.633 305V195.26H248.633V305H251.633ZM441.391 194.485L441.844 193.055L441.391 194.485ZM452.396 200.375L451.436 201.527L451.445 201.535L451.454 201.543L452.396 200.375ZM459.836 209.83L458.479 210.471L458.49 210.493L458.502 210.516L459.836 209.83ZM457.821 238.195L456.624 237.29L457.821 238.195ZM445.576 247.03L445.102 245.607L444.076 245.949V247.03H445.576ZM445.576 247.34H444.076V248.511L445.212 248.795L445.576 247.34ZM453.636 250.905L452.804 252.153L452.822 252.165L452.841 252.177L453.636 250.905ZM460.146 256.795L458.965 257.719L458.975 257.732L458.985 257.745L460.146 256.795ZM464.486 264.545L463.073 265.049L463.081 265.072L463.09 265.093L464.486 264.545ZM463.091 288.57L461.743 287.912L461.739 287.919L461.736 287.926L463.091 288.57ZM454.876 299.11L453.922 297.952L453.914 297.959L453.905 297.966L454.876 299.11ZM442.786 305.62L443.231 307.052L442.786 305.62ZM400.781 299.11L399.81 300.254L399.819 300.261L399.827 300.268L400.781 299.11ZM392.566 288.57L391.205 289.201L391.214 289.221L391.224 289.241L392.566 288.57ZM391.326 264.235L392.728 264.767L391.326 264.235ZM395.821 256.33L394.686 255.35L394.673 255.365L394.66 255.38L395.821 256.33ZM402.486 250.75L403.242 252.046L403.261 252.034L403.281 252.022L402.486 250.75ZM410.236 247.34L410.626 248.788L411.736 248.49V247.34H410.236ZM410.236 247.03H411.736V245.97L410.737 245.616L410.236 247.03ZM397.991 238.505L396.829 239.453L397.991 238.505ZM395.821 210.45L394.472 209.794L394.468 209.802L394.464 209.809L395.821 210.45ZM403.261 200.84L404.221 201.992L404.225 201.989L403.261 200.84ZM414.266 194.64L413.781 193.22L413.77 193.224L414.266 194.64ZM416.436 212L415.414 210.902L415.404 210.911L415.395 210.92L416.436 212ZM416.281 234.63L415.166 235.633L415.175 235.644L415.184 235.653L416.281 234.63ZM434.106 238.04L434.688 239.422V239.422L434.106 238.04ZM442.631 229.515L441.248 228.933L442.631 229.515ZM442.476 216.96L441.093 217.542L441.112 217.587L441.134 217.631L442.476 216.96ZM438.911 212L437.89 213.099L437.909 213.117L437.928 213.134L438.911 212ZM433.796 208.9L433.252 210.298L433.265 210.303L433.277 210.308L433.796 208.9ZM420.311 256.485L419.764 255.088L419.754 255.092L419.743 255.097L420.311 256.485ZM414.266 260.36L415.292 261.454L415.294 261.452L414.266 260.36ZM410.236 266.25L408.86 265.652L408.854 265.667L408.848 265.682L410.236 266.25ZM414.266 287.33L413.271 288.453L414.266 287.33ZM441.391 287.33L442.385 288.453L441.391 287.33ZM445.266 266.405L443.869 266.952L443.884 266.989L443.9 267.026L445.266 266.405ZM441.236 260.36L440.175 261.421L440.191 261.437L440.208 261.452L441.236 260.36ZM435.191 256.485L434.623 257.873L434.634 257.878L434.644 257.882L435.191 256.485ZM427.906 193.97C432.516 193.97 436.857 194.621 440.938 195.915L441.844 193.055C437.451 191.662 432.802 190.97 427.906 190.97V193.97ZM440.938 195.915C445.008 197.205 448.499 199.081 451.436 201.527L453.356 199.223C450.092 196.503 446.247 194.451 441.844 193.055L440.938 195.915ZM451.454 201.543C454.481 203.984 456.82 206.955 458.479 210.471L461.192 209.189C459.339 205.265 456.717 201.933 453.337 199.207L451.454 201.543ZM458.502 210.516C460.238 213.892 461.126 217.784 461.126 222.23H464.126C464.126 217.376 463.154 213.001 461.17 209.144L458.502 210.516ZM461.126 222.23C461.126 228.379 459.593 233.364 456.624 237.29L459.017 239.1C462.456 234.552 464.126 228.894 464.126 222.23H461.126ZM456.624 237.29C453.601 241.289 449.769 244.051 445.102 245.607L446.05 248.453C451.303 246.702 455.634 243.574 459.017 239.1L456.624 237.29ZM444.076 247.03V247.34H447.076V247.03H444.076ZM445.212 248.795C447.939 249.477 450.467 250.595 452.804 252.153L454.468 249.657C451.845 247.908 449 246.65 445.94 245.885L445.212 248.795ZM452.841 252.177C455.168 253.632 457.209 255.476 458.965 257.719L461.327 255.871C459.363 253.361 457.064 251.278 454.431 249.633L452.841 252.177ZM458.985 257.745C460.731 259.879 462.095 262.31 463.073 265.049L465.898 264.04C464.81 260.993 463.281 258.257 461.307 255.845L458.985 257.745ZM463.09 265.093C464.151 267.796 464.691 270.759 464.691 274H467.691C467.691 270.421 467.094 267.081 465.882 263.997L463.09 265.093ZM464.691 274C464.691 279.286 463.694 283.911 461.743 287.912L464.439 289.228C466.621 284.755 467.691 279.668 467.691 274H464.691ZM461.736 287.926C459.867 291.862 457.265 295.199 453.922 297.952L455.829 300.268C459.514 297.234 462.389 293.545 464.446 289.214L461.736 287.926ZM453.905 297.966C450.662 300.718 446.815 302.796 442.34 304.188L443.231 307.052C448.057 305.551 452.269 303.289 455.846 300.254L453.905 297.966ZM442.34 304.188C437.846 305.586 433.037 306.29 427.906 306.29V309.29C433.315 309.29 438.426 308.547 443.231 307.052L442.34 304.188ZM427.906 306.29C422.775 306.29 417.966 305.586 413.471 304.188L412.58 307.052C417.386 308.547 422.497 309.29 427.906 309.29V306.29ZM413.471 304.188C408.994 302.795 405.088 300.714 401.734 297.952L399.827 300.268C403.501 303.293 407.758 305.552 412.58 307.052L413.471 304.188ZM401.751 297.966C398.501 295.208 395.887 291.858 393.908 287.899L391.224 289.241C393.378 293.549 396.241 297.225 399.81 300.254L401.751 297.966ZM393.927 287.939C392.07 283.932 391.121 279.296 391.121 274H388.121C388.121 279.657 389.135 284.735 391.205 289.201L393.927 287.939ZM391.121 274C391.121 270.651 391.662 267.578 392.728 264.767L389.923 263.703C388.716 266.885 388.121 270.322 388.121 274H391.121ZM392.728 264.767C393.813 261.908 395.233 259.417 396.982 257.28L394.66 255.38C392.688 257.79 391.112 260.569 389.923 263.703L392.728 264.767ZM396.956 257.31C398.816 255.157 400.911 253.405 403.242 252.046L401.73 249.454C399.101 250.988 396.752 252.957 394.686 255.35L396.956 257.31ZM403.281 252.022C405.642 250.546 408.089 249.471 410.626 248.788L409.846 245.892C407.009 246.655 404.29 247.854 401.691 249.478L403.281 252.022ZM411.736 247.34V247.03H408.736V247.34H411.736ZM410.737 245.616C406.025 243.947 402.176 241.262 399.153 237.557L396.829 239.453C400.212 243.601 404.526 246.599 409.735 248.444L410.737 245.616ZM399.153 237.557C396.221 233.962 394.686 229.159 394.686 223.005H391.686C391.686 229.664 393.354 235.194 396.829 239.453L399.153 237.557ZM394.686 223.005C394.686 218.548 395.527 214.586 397.177 211.091L394.464 209.809C392.602 213.754 391.686 218.162 391.686 223.005H394.686ZM397.17 211.106C398.942 207.463 401.293 204.432 404.221 201.992L402.301 199.688C399.029 202.414 396.42 205.79 394.472 209.794L397.17 211.106ZM404.225 201.989C407.283 199.424 410.791 197.445 414.761 196.056L413.77 193.224C409.474 194.728 405.646 196.882 402.297 199.691L404.225 201.989ZM414.751 196.06C418.818 194.67 423.2 193.97 427.906 193.97V190.97C422.898 190.97 418.187 191.716 413.781 193.22L414.751 196.06ZM427.906 206.315C422.932 206.315 418.726 207.818 415.414 210.902L417.458 213.098C420.139 210.602 423.58 209.315 427.906 209.315V206.315ZM415.395 210.92C412.155 214.044 410.596 218.235 410.596 223.315H413.596C413.596 218.889 414.93 215.536 417.477 213.08L415.395 210.92ZM410.596 223.315C410.596 228.102 412.111 232.239 415.166 235.633L417.396 233.627C414.871 230.821 413.596 227.414 413.596 223.315H410.596ZM415.184 235.653C418.404 239.103 422.7 240.78 427.906 240.78V237.78C423.399 237.78 419.945 236.357 417.377 233.607L415.184 235.653ZM427.906 240.78C430.272 240.78 432.537 240.328 434.688 239.422L433.524 236.658C431.748 237.405 429.88 237.78 427.906 237.78V240.78ZM434.688 239.422C436.823 238.524 438.692 237.28 440.282 235.691L438.16 233.569C436.856 234.873 435.316 235.903 433.524 236.658L434.688 239.422ZM440.282 235.691C441.871 234.101 443.115 232.232 444.013 230.097L441.248 228.933C440.494 230.725 439.464 232.266 438.16 233.569L440.282 235.691ZM444.013 230.097C444.919 227.946 445.371 225.681 445.371 223.315H442.371C442.371 225.289 441.996 227.157 441.248 228.933L444.013 230.097ZM445.371 223.315C445.371 220.739 444.866 218.385 443.818 216.289L441.134 217.631C441.946 219.255 442.371 221.138 442.371 223.315H445.371ZM443.858 216.378C442.946 214.211 441.624 212.366 439.893 210.866L437.928 213.134C439.298 214.32 440.352 215.782 441.093 217.542L443.858 216.378ZM439.932 210.901C438.331 209.415 436.453 208.28 434.314 207.492L433.277 210.308C435.066 210.966 436.597 211.899 437.89 213.099L439.932 210.901ZM434.34 207.502C432.3 206.709 430.152 206.315 427.906 206.315V209.315C429.793 209.315 431.572 209.644 433.252 210.298L434.34 207.502ZM427.906 253.59C425.042 253.59 422.324 254.086 419.764 255.088L420.857 257.882C423.051 257.024 425.396 256.59 427.906 256.59V253.59ZM419.743 255.097C417.303 256.095 415.131 257.486 413.238 259.268L415.294 261.452C416.914 259.927 418.773 258.735 420.879 257.873L419.743 255.097ZM413.24 259.266C411.418 260.974 409.963 263.115 408.86 265.652L411.611 266.848C412.575 264.632 413.808 262.846 415.292 261.454L413.24 259.266ZM408.848 265.682C407.834 268.159 407.341 270.887 407.341 273.845H410.341C410.341 271.223 410.777 268.888 411.624 266.818L408.848 265.682ZM407.341 273.845C407.341 279.968 409.27 284.909 413.271 288.453L415.26 286.207C412.029 283.345 410.341 279.295 410.341 273.845H407.341ZM413.271 288.453C417.199 291.932 422.115 293.635 427.906 293.635V290.635C422.743 290.635 418.566 289.135 415.26 286.207L413.271 288.453ZM427.906 293.635C433.601 293.635 438.463 291.927 442.385 288.453L440.396 286.207C437.085 289.14 432.957 290.635 427.906 290.635V293.635ZM442.385 288.453C446.387 284.909 448.316 279.968 448.316 273.845H445.316C445.316 279.295 443.628 283.345 440.396 286.207L442.385 288.453ZM448.316 273.845C448.316 270.961 447.76 268.267 446.631 265.784L443.9 267.026C444.838 269.09 445.316 271.356 445.316 273.845H448.316ZM446.663 265.858C445.657 263.287 444.192 261.082 442.264 259.268L440.208 261.452C441.793 262.945 443.015 264.77 443.869 266.952L446.663 265.858ZM442.297 259.299C440.484 257.487 438.289 256.087 435.737 255.088L434.644 257.882C436.846 258.743 438.681 259.927 440.175 261.421L442.297 259.299ZM435.759 255.097C433.296 254.089 430.674 253.59 427.906 253.59V256.59C430.305 256.59 432.539 257.021 434.623 257.873L435.759 255.097Z" fill="url(#paint0_linear_2_4)"/>
<defs>
<linearGradient id="paint0_linear_2_4" x1="255" y1="150" x2="255" y2="362" gradientUnits="userSpaceOnUse">
<stop stop-color="#FF0000"/>
<stop offset="1" stop-color="#4200FF"/>
</linearGradient>
</defs>
</svg>
