<svg width="435" height="438" viewBox="0 0 435 438" fill="none" xmlns="http://www.w3.org/2000/svg">
<path d="M48.5 158.26H65.395L112.67 268H90.35L80.12 242.89H32.535L22.615 268H0.76L48.5 158.26ZM73.3 226.15L56.405 181.51L39.2 226.15H73.3ZM122.133 250.95L164.448 209.41C167.858 206.103 170.545 202.797 172.508 199.49C174.575 196.08 175.608 192.205 175.608 187.865C175.608 182.698 173.903 178.617 170.493 175.62C167.187 172.52 163.053 170.97 158.093 170.97C152.823 170.97 148.587 172.778 145.383 176.395C142.18 179.908 140.217 184.352 139.493 189.725L121.358 186.935C121.875 182.388 123.167 178.203 125.233 174.38C127.3 170.557 129.935 167.25 133.138 164.46C136.342 161.67 140.062 159.5 144.298 157.95C148.638 156.297 153.34 155.47 158.403 155.47C163.157 155.47 167.703 156.142 172.043 157.485C176.487 158.828 180.413 160.895 183.823 163.685C187.233 166.372 189.92 169.73 191.883 173.76C193.95 177.687 194.983 182.285 194.983 187.555C194.983 191.068 194.518 194.375 193.588 197.475C192.658 200.472 191.367 203.313 189.713 206C188.163 208.687 186.303 211.27 184.133 213.75C182.067 216.127 179.793 218.452 177.313 220.725L145.693 250.95H195.138V268H122.133V250.95ZM218.133 158.26H248.668L277.188 236.225H277.653L305.863 158.26H336.553V268H317.178V179.805H316.868L283.543 268H269.903L237.043 179.805H236.733V268H218.133V158.26ZM395.906 155.47C400.659 155.47 405.154 156.142 409.391 157.485C413.628 158.828 417.296 160.792 420.396 163.375C423.599 165.958 426.079 169.11 427.836 172.83C429.696 176.447 430.626 180.58 430.626 185.23C430.626 191.637 429.024 196.958 425.821 201.195C422.618 205.432 418.536 208.377 413.576 210.03V210.34C416.469 211.063 419.156 212.252 421.636 213.905C424.116 215.455 426.286 217.418 428.146 219.795C430.006 222.068 431.453 224.652 432.486 227.545C433.623 230.438 434.191 233.59 434.191 237C434.191 242.477 433.158 247.333 431.091 251.57C429.128 255.703 426.389 259.217 422.876 262.11C419.466 265.003 415.436 267.173 410.786 268.62C406.136 270.067 401.176 270.79 395.906 270.79C390.636 270.79 385.676 270.067 381.026 268.62C376.376 267.173 372.294 265.003 368.781 262.11C365.371 259.217 362.633 255.703 360.566 251.57C358.603 247.333 357.621 242.477 357.621 237C357.621 233.487 358.189 230.232 359.326 227.235C360.463 224.238 361.961 221.603 363.821 219.33C365.784 217.057 368.006 215.197 370.486 213.75C372.966 212.2 375.549 211.063 378.236 210.34V210.03C373.276 208.273 369.194 205.432 365.991 201.505C362.788 197.578 361.186 192.412 361.186 186.005C361.186 181.355 362.064 177.17 363.821 173.45C365.681 169.627 368.161 166.423 371.261 163.84C374.464 161.153 378.133 159.087 382.266 157.64C386.503 156.193 391.049 155.47 395.906 155.47ZM395.906 170.815C391.256 170.815 387.433 172.21 384.436 175C381.543 177.79 380.096 181.562 380.096 186.315C380.096 190.758 381.491 194.53 384.281 197.63C387.174 200.73 391.049 202.28 395.906 202.28C398.076 202.28 400.143 201.867 402.106 201.04C404.069 200.213 405.774 199.077 407.221 197.63C408.668 196.183 409.804 194.478 410.631 192.515C411.458 190.552 411.871 188.485 411.871 186.315C411.871 183.938 411.406 181.82 410.476 179.96C409.649 177.997 408.461 176.343 406.911 175C405.464 173.657 403.759 172.623 401.796 171.9C399.936 171.177 397.973 170.815 395.906 170.815ZM395.906 218.09C393.219 218.09 390.688 218.555 388.311 219.485C386.038 220.415 384.023 221.707 382.266 223.36C380.613 224.91 379.269 226.873 378.236 229.25C377.306 231.523 376.841 234.055 376.841 236.845C376.841 242.632 378.649 247.127 382.266 250.33C385.883 253.533 390.429 255.135 395.906 255.135C401.279 255.135 405.774 253.533 409.391 250.33C413.008 247.127 414.816 242.632 414.816 236.845C414.816 234.158 414.299 231.678 413.266 229.405C412.336 227.028 410.993 225.013 409.236 223.36C407.583 221.707 405.568 220.415 403.191 219.485C400.918 218.555 398.489 218.09 395.906 218.09Z" fill="black"/>
<path d="M48.5 158.26V156.76H47.5168L47.1245 157.662L48.5 158.26ZM65.395 158.26L66.7726 157.667L66.3821 156.76H65.395V158.26ZM112.67 268V269.5H114.949L114.048 267.407L112.67 268ZM90.35 268L88.9609 268.566L89.3414 269.5H90.35V268ZM80.12 242.89L81.5091 242.324L81.1286 241.39H80.12V242.89ZM32.535 242.89V241.39H31.5148L31.1399 242.339L32.535 242.89ZM22.615 268V269.5H23.6352L24.0101 268.551L22.615 268ZM0.76 268L-0.615482 267.402L-1.52833 269.5H0.76V268ZM73.3 226.15V227.65H75.4715L74.7029 225.619L73.3 226.15ZM56.405 181.51L57.8079 180.979L56.4177 177.306L55.0054 180.971L56.405 181.51ZM39.2 226.15L37.8004 225.611L37.0143 227.65H39.2V226.15ZM48.5 159.76H65.395V156.76H48.5V159.76ZM64.0174 158.853L111.292 268.593L114.048 267.407L66.7726 157.667L64.0174 158.853ZM112.67 266.5H90.35V269.5H112.67V266.5ZM91.7391 267.434L81.5091 242.324L78.7309 243.456L88.9609 268.566L91.7391 267.434ZM80.12 241.39H32.535V244.39H80.12V241.39ZM31.1399 242.339L21.2199 267.449L24.0101 268.551L33.9301 243.441L31.1399 242.339ZM22.615 266.5H0.76V269.5H22.615V266.5ZM2.13548 268.598L49.8755 158.858L47.1245 157.662L-0.615482 267.402L2.13548 268.598ZM74.7029 225.619L57.8079 180.979L55.0021 182.041L71.8971 226.681L74.7029 225.619ZM55.0054 180.971L37.8004 225.611L40.5996 226.689L57.8046 182.049L55.0054 180.971ZM39.2 227.65H73.3V224.65H39.2V227.65ZM122.133 250.95L121.083 249.88L120.633 250.321V250.95H122.133ZM164.448 209.41L163.404 208.333L163.398 208.34L164.448 209.41ZM172.508 199.49L171.226 198.713L171.219 198.724L172.508 199.49ZM170.493 175.62L169.468 176.714L169.485 176.731L169.503 176.747L170.493 175.62ZM145.383 176.395L146.492 177.406L146.499 177.398L146.506 177.39L145.383 176.395ZM139.493 189.725L139.265 191.208L140.776 191.44L140.98 189.925L139.493 189.725ZM121.358 186.935L119.868 186.766L119.705 188.198L121.13 188.418L121.358 186.935ZM125.233 174.38L123.914 173.667V173.667L125.233 174.38ZM133.138 164.46L132.153 163.329L133.138 164.46ZM144.298 157.95L144.814 159.359L144.823 159.355L144.832 159.352L144.298 157.95ZM172.043 157.485L171.6 158.918L171.609 158.921L172.043 157.485ZM183.823 163.685L182.874 164.846L182.884 164.855L182.895 164.863L183.823 163.685ZM191.883 173.76L190.535 174.417L190.545 174.438L190.556 174.459L191.883 173.76ZM193.588 197.475L195.021 197.92L195.023 197.913L195.025 197.906L193.588 197.475ZM189.713 206L188.436 205.214L188.425 205.232L188.414 205.25L189.713 206ZM184.133 213.75L183.005 212.762L183.002 212.766L184.133 213.75ZM177.313 220.725L176.3 219.619L176.288 219.63L176.277 219.641L177.313 220.725ZM145.693 250.95L144.657 249.866L141.953 252.45H145.693V250.95ZM195.138 250.95H196.638V249.45H195.138V250.95ZM195.138 268V269.5H196.638V268H195.138ZM122.133 268H120.633V269.5H122.133V268ZM123.184 252.02L165.499 210.48L163.398 208.34L121.083 249.88L123.184 252.02ZM165.493 210.487C168.977 207.109 171.754 203.7 173.798 200.256L171.219 198.724C169.337 201.894 166.74 205.098 163.404 208.333L165.493 210.487ZM173.791 200.267C176.012 196.602 177.108 192.454 177.108 187.865H174.108C174.108 191.956 173.138 195.558 171.226 198.713L173.791 200.267ZM177.108 187.865C177.108 182.333 175.264 177.816 171.484 174.493L169.503 176.747C172.543 179.418 174.108 183.064 174.108 187.865H177.108ZM171.519 174.526C167.907 171.139 163.395 169.47 158.093 169.47V172.47C162.712 172.47 166.466 173.901 169.468 176.714L171.519 174.526ZM158.093 169.47C152.438 169.47 147.776 171.431 144.261 175.4L146.506 177.39C149.397 174.126 153.209 172.47 158.093 172.47V169.47ZM144.275 175.384C140.838 179.154 138.765 183.893 138.007 189.525L140.98 189.925C141.669 184.81 143.522 180.663 146.492 177.406L144.275 175.384ZM139.722 188.242L121.587 185.452L121.13 188.418L139.265 191.208L139.722 188.242ZM122.849 187.104C123.345 182.738 124.582 178.739 126.553 175.093L123.914 173.667C121.751 177.668 120.405 182.039 119.868 186.766L122.849 187.104ZM126.553 175.093C128.536 171.424 131.059 168.26 134.124 165.591L132.153 163.329C128.811 166.24 126.064 169.689 123.914 173.667L126.553 175.093ZM134.124 165.591C137.18 162.929 140.739 160.85 144.814 159.359L143.783 156.541C139.385 158.15 135.503 160.411 132.153 163.329L134.124 165.591ZM144.832 159.352C148.987 157.769 153.506 156.97 158.403 156.97V153.97C153.174 153.97 148.29 154.824 143.764 156.548L144.832 159.352ZM158.403 156.97C163.013 156.97 167.41 157.621 171.6 158.918L172.487 156.052C167.997 154.662 163.3 153.97 158.403 153.97V156.97ZM171.609 158.921C175.875 160.21 179.624 162.187 182.874 164.846L184.773 162.524C181.203 159.603 177.099 157.446 172.478 156.049L171.609 158.921ZM182.895 164.863C186.122 167.405 188.667 170.583 190.535 174.417L193.232 173.103C191.173 168.877 188.345 165.338 184.752 162.507L182.895 164.863ZM190.556 174.459C192.49 178.133 193.483 182.483 193.483 187.555H196.483C196.483 182.087 195.41 177.24 193.211 173.061L190.556 174.459ZM193.483 187.555C193.483 190.935 193.036 194.095 192.152 197.044L195.025 197.906C196.001 194.655 196.483 191.202 196.483 187.555H193.483ZM192.156 197.03C191.263 199.907 190.024 202.634 188.436 205.214L190.991 206.786C192.71 203.993 194.054 201.037 195.021 197.92L192.156 197.03ZM188.414 205.25C186.916 207.847 185.114 210.351 183.005 212.762L185.262 214.738C187.493 212.189 189.411 209.526 191.013 206.75L188.414 205.25ZM183.002 212.766C180.974 215.097 178.741 217.382 176.3 219.619L178.327 221.831C180.846 219.522 183.159 217.156 185.265 214.734L183.002 212.766ZM176.277 219.641L144.657 249.866L146.73 252.034L178.35 221.809L176.277 219.641ZM145.693 252.45H195.138V249.45H145.693V252.45ZM193.638 250.95V268H196.638V250.95H193.638ZM195.138 266.5H122.133V269.5H195.138V266.5ZM123.633 268V250.95H120.633V268H123.633ZM218.133 158.26V156.76H216.633V158.26H218.133ZM248.668 158.26L250.077 157.745L249.716 156.76H248.668V158.26ZM277.188 236.225L275.779 236.74L276.139 237.725H277.188V236.225ZM277.653 236.225V237.725H278.705L279.063 236.735L277.653 236.225ZM305.863 158.26V156.76H304.811L304.452 157.75L305.863 158.26ZM336.553 158.26H338.053V156.76H336.553V158.26ZM336.553 268V269.5H338.053V268H336.553ZM317.178 268H315.678V269.5H317.178V268ZM317.178 179.805H318.678V178.305H317.178V179.805ZM316.868 179.805V178.305H315.831L315.465 179.275L316.868 179.805ZM283.543 268V269.5H284.58L284.946 268.53L283.543 268ZM269.903 268L268.497 268.524L268.861 269.5H269.903V268ZM237.043 179.805L238.449 179.281L238.085 178.305H237.043V179.805ZM236.733 179.805V178.305H235.233V179.805H236.733ZM236.733 268V269.5H238.233V268H236.733ZM218.133 268H216.633V269.5H218.133V268ZM218.133 159.76H248.668V156.76H218.133V159.76ZM247.259 158.775L275.779 236.74L278.597 235.71L250.077 157.745L247.259 158.775ZM277.188 237.725H277.653V234.725H277.188V237.725ZM279.063 236.735L307.273 158.77L304.452 157.75L276.242 235.715L279.063 236.735ZM305.863 159.76H336.553V156.76H305.863V159.76ZM335.053 158.26V268H338.053V158.26H335.053ZM336.553 266.5H317.178V269.5H336.553V266.5ZM318.678 268V179.805H315.678V268H318.678ZM317.178 178.305H316.868V181.305H317.178V178.305ZM315.465 179.275L282.14 267.47L284.946 268.53L318.271 180.335L315.465 179.275ZM283.543 266.5H269.903V269.5H283.543V266.5ZM271.309 267.476L238.449 179.281L235.637 180.329L268.497 268.524L271.309 267.476ZM237.043 178.305H236.733V181.305H237.043V178.305ZM235.233 179.805V268H238.233V179.805H235.233ZM236.733 266.5H218.133V269.5H236.733V266.5ZM219.633 268V158.26H216.633V268H219.633ZM409.391 157.485L409.844 156.055L409.391 157.485ZM420.396 163.375L419.436 164.527L419.445 164.535L419.454 164.543L420.396 163.375ZM427.836 172.83L426.479 173.471L426.49 173.493L426.502 173.516L427.836 172.83ZM425.821 201.195L424.624 200.29L425.821 201.195ZM413.576 210.03L413.102 208.607L412.076 208.949V210.03H413.576ZM413.576 210.34H412.076V211.511L413.212 211.795L413.576 210.34ZM421.636 213.905L420.804 215.153L420.822 215.165L420.841 215.177L421.636 213.905ZM428.146 219.795L426.965 220.719L426.975 220.732L426.985 220.745L428.146 219.795ZM432.486 227.545L431.073 228.049L431.081 228.072L431.09 228.093L432.486 227.545ZM431.091 251.57L429.743 250.912L429.739 250.919L429.736 250.926L431.091 251.57ZM422.876 262.11L421.922 260.952L421.914 260.959L421.905 260.966L422.876 262.11ZM410.786 268.62L411.231 270.052L410.786 268.62ZM368.781 262.11L367.81 263.254L367.819 263.261L367.827 263.268L368.781 262.11ZM360.566 251.57L359.205 252.201L359.214 252.221L359.224 252.241L360.566 251.57ZM359.326 227.235L360.728 227.767L359.326 227.235ZM363.821 219.33L362.686 218.35L362.673 218.365L362.66 218.38L363.821 219.33ZM370.486 213.75L371.242 215.046L371.261 215.034L371.281 215.022L370.486 213.75ZM378.236 210.34L378.626 211.788L379.736 211.49V210.34H378.236ZM378.236 210.03H379.736V208.97L378.737 208.616L378.236 210.03ZM365.991 201.505L364.829 202.453L365.991 201.505ZM363.821 173.45L362.472 172.794L362.468 172.802L362.464 172.809L363.821 173.45ZM371.261 163.84L372.221 164.992L372.225 164.989L371.261 163.84ZM382.266 157.64L381.781 156.22L381.77 156.224L382.266 157.64ZM384.436 175L383.414 173.902L383.404 173.911L383.395 173.92L384.436 175ZM384.281 197.63L383.166 198.633L383.175 198.644L383.184 198.653L384.281 197.63ZM402.106 201.04L402.688 202.422V202.422L402.106 201.04ZM410.631 192.515L409.248 191.933L410.631 192.515ZM410.476 179.96L409.093 180.542L409.112 180.587L409.134 180.631L410.476 179.96ZM406.911 175L405.89 176.099L405.909 176.117L405.928 176.134L406.911 175ZM401.796 171.9L401.252 173.298L401.265 173.303L401.277 173.308L401.796 171.9ZM388.311 219.485L387.764 218.088L387.754 218.092L387.743 218.097L388.311 219.485ZM382.266 223.36L383.292 224.454L383.294 224.452L382.266 223.36ZM378.236 229.25L376.86 228.652L376.854 228.667L376.848 228.682L378.236 229.25ZM382.266 250.33L381.271 251.453L382.266 250.33ZM409.391 250.33L410.385 251.453L409.391 250.33ZM413.266 229.405L411.869 229.952L411.884 229.989L411.9 230.026L413.266 229.405ZM409.236 223.36L408.175 224.421L408.191 224.437L408.208 224.452L409.236 223.36ZM403.191 219.485L402.623 220.873L402.634 220.878L402.644 220.882L403.191 219.485ZM395.906 156.97C400.516 156.97 404.857 157.621 408.938 158.915L409.844 156.055C405.451 154.662 400.802 153.97 395.906 153.97V156.97ZM408.938 158.915C413.008 160.205 416.499 162.081 419.436 164.527L421.356 162.223C418.092 159.503 414.247 157.451 409.844 156.055L408.938 158.915ZM419.454 164.543C422.481 166.984 424.82 169.955 426.479 173.471L429.192 172.189C427.339 168.265 424.717 164.933 421.337 162.207L419.454 164.543ZM426.502 173.516C428.238 176.892 429.126 180.784 429.126 185.23H432.126C432.126 180.376 431.154 176.001 429.17 172.144L426.502 173.516ZM429.126 185.23C429.126 191.379 427.593 196.364 424.624 200.29L427.017 202.1C430.456 197.552 432.126 191.894 432.126 185.23H429.126ZM424.624 200.29C421.601 204.289 417.769 207.051 413.102 208.607L414.05 211.453C419.303 209.702 423.634 206.574 427.017 202.1L424.624 200.29ZM412.076 210.03V210.34H415.076V210.03H412.076ZM413.212 211.795C415.939 212.477 418.467 213.595 420.804 215.153L422.468 212.657C419.845 210.908 417 209.65 413.94 208.885L413.212 211.795ZM420.841 215.177C423.168 216.632 425.209 218.476 426.965 220.719L429.327 218.871C427.363 216.361 425.064 214.278 422.431 212.633L420.841 215.177ZM426.985 220.745C428.731 222.879 430.095 225.31 431.073 228.049L433.898 227.04C432.81 223.993 431.281 221.257 429.307 218.845L426.985 220.745ZM431.09 228.093C432.151 230.796 432.691 233.759 432.691 237H435.691C435.691 233.421 435.094 230.081 433.882 226.997L431.09 228.093ZM432.691 237C432.691 242.286 431.694 246.911 429.743 250.912L432.439 252.228C434.621 247.755 435.691 242.668 435.691 237H432.691ZM429.736 250.926C427.867 254.862 425.265 258.199 421.922 260.952L423.829 263.268C427.514 260.234 430.389 256.545 432.446 252.214L429.736 250.926ZM421.905 260.966C418.662 263.718 414.815 265.796 410.34 267.188L411.231 270.052C416.057 268.551 420.269 266.289 423.846 263.254L421.905 260.966ZM410.34 267.188C405.846 268.586 401.037 269.29 395.906 269.29V272.29C401.315 272.29 406.426 271.547 411.231 270.052L410.34 267.188ZM395.906 269.29C390.775 269.29 385.966 268.586 381.471 267.188L380.58 270.052C385.386 271.547 390.497 272.29 395.906 272.29V269.29ZM381.471 267.188C376.994 265.795 373.088 263.714 369.734 260.952L367.827 263.268C371.501 266.293 375.758 268.552 380.58 270.052L381.471 267.188ZM369.751 260.966C366.501 258.208 363.887 254.858 361.908 250.899L359.224 252.241C361.378 256.549 364.241 260.225 367.81 263.254L369.751 260.966ZM361.927 250.939C360.07 246.932 359.121 242.296 359.121 237H356.121C356.121 242.657 357.135 247.735 359.205 252.201L361.927 250.939ZM359.121 237C359.121 233.651 359.662 230.578 360.728 227.767L357.923 226.703C356.716 229.885 356.121 233.322 356.121 237H359.121ZM360.728 227.767C361.813 224.908 363.233 222.417 364.982 220.28L362.66 218.38C360.688 220.79 359.112 223.569 357.923 226.703L360.728 227.767ZM364.956 220.31C366.816 218.157 368.911 216.405 371.242 215.046L369.73 212.454C367.101 213.988 364.752 215.957 362.686 218.35L364.956 220.31ZM371.281 215.022C373.642 213.546 376.089 212.471 378.626 211.788L377.846 208.892C375.009 209.655 372.29 210.854 369.691 212.478L371.281 215.022ZM379.736 210.34V210.03H376.736V210.34H379.736ZM378.737 208.616C374.025 206.947 370.176 204.262 367.153 200.557L364.829 202.453C368.212 206.601 372.526 209.599 377.735 211.444L378.737 208.616ZM367.153 200.557C364.221 196.962 362.686 192.159 362.686 186.005H359.686C359.686 192.664 361.354 198.194 364.829 202.453L367.153 200.557ZM362.686 186.005C362.686 181.548 363.527 177.586 365.177 174.091L362.464 172.809C360.602 176.754 359.686 181.162 359.686 186.005H362.686ZM365.17 174.106C366.942 170.463 369.293 167.432 372.221 164.992L370.301 162.688C367.029 165.414 364.42 168.79 362.472 172.794L365.17 174.106ZM372.225 164.989C375.283 162.424 378.791 160.445 382.761 159.056L381.77 156.224C377.474 157.728 373.646 159.882 370.297 162.691L372.225 164.989ZM382.751 159.06C386.818 157.67 391.2 156.97 395.906 156.97V153.97C390.898 153.97 386.187 154.716 381.781 156.22L382.751 159.06ZM395.906 169.315C390.932 169.315 386.726 170.818 383.414 173.902L385.458 176.098C388.139 173.602 391.58 172.315 395.906 172.315V169.315ZM383.395 173.92C380.155 177.044 378.596 181.235 378.596 186.315H381.596C381.596 181.889 382.93 178.536 385.477 176.08L383.395 173.92ZM378.596 186.315C378.596 191.102 380.111 195.239 383.166 198.633L385.396 196.627C382.871 193.821 381.596 190.414 381.596 186.315H378.596ZM383.184 198.653C386.404 202.103 390.7 203.78 395.906 203.78V200.78C391.399 200.78 387.945 199.357 385.377 196.607L383.184 198.653ZM395.906 203.78C398.272 203.78 400.537 203.328 402.688 202.422L401.524 199.658C399.748 200.405 397.88 200.78 395.906 200.78V203.78ZM402.688 202.422C404.823 201.524 406.692 200.28 408.282 198.691L406.16 196.569C404.856 197.873 403.316 198.903 401.524 199.658L402.688 202.422ZM408.282 198.691C409.871 197.101 411.115 195.232 412.013 193.097L409.248 191.933C408.494 193.725 407.464 195.266 406.16 196.569L408.282 198.691ZM412.013 193.097C412.919 190.946 413.371 188.681 413.371 186.315H410.371C410.371 188.289 409.996 190.157 409.248 191.933L412.013 193.097ZM413.371 186.315C413.371 183.739 412.866 181.385 411.818 179.289L409.134 180.631C409.946 182.255 410.371 184.138 410.371 186.315H413.371ZM411.858 179.378C410.946 177.211 409.624 175.366 407.893 173.866L405.928 176.134C407.298 177.32 408.352 178.782 409.093 180.542L411.858 179.378ZM407.932 173.901C406.331 172.415 404.453 171.28 402.314 170.492L401.277 173.308C403.066 173.966 404.597 174.899 405.89 176.099L407.932 173.901ZM402.34 170.502C400.3 169.709 398.152 169.315 395.906 169.315V172.315C397.793 172.315 399.572 172.644 401.252 173.298L402.34 170.502ZM395.906 216.59C393.042 216.59 390.324 217.086 387.764 218.088L388.857 220.882C391.051 220.024 393.396 219.59 395.906 219.59V216.59ZM387.743 218.097C385.303 219.095 383.131 220.486 381.238 222.268L383.294 224.452C384.914 222.927 386.773 221.735 388.879 220.873L387.743 218.097ZM381.24 222.266C379.418 223.974 377.963 226.115 376.86 228.652L379.611 229.848C380.575 227.632 381.808 225.846 383.292 224.454L381.24 222.266ZM376.848 228.682C375.834 231.159 375.341 233.887 375.341 236.845H378.341C378.341 234.223 378.777 231.888 379.624 229.818L376.848 228.682ZM375.341 236.845C375.341 242.968 377.27 247.909 381.271 251.453L383.26 249.207C380.029 246.345 378.341 242.295 378.341 236.845H375.341ZM381.271 251.453C385.199 254.932 390.115 256.635 395.906 256.635V253.635C390.743 253.635 386.566 252.135 383.26 249.207L381.271 251.453ZM395.906 256.635C401.601 256.635 406.463 254.927 410.385 251.453L408.396 249.207C405.085 252.14 400.957 253.635 395.906 253.635V256.635ZM410.385 251.453C414.387 247.909 416.316 242.968 416.316 236.845H413.316C413.316 242.295 411.628 246.345 408.396 249.207L410.385 251.453ZM416.316 236.845C416.316 233.961 415.76 231.267 414.631 228.784L411.9 230.026C412.838 232.09 413.316 234.356 413.316 236.845H416.316ZM414.663 228.858C413.657 226.287 412.192 224.082 410.264 222.268L408.208 224.452C409.793 225.945 411.015 227.77 411.869 229.952L414.663 228.858ZM410.297 222.299C408.484 220.487 406.289 219.087 403.737 218.088L402.644 220.882C404.846 221.743 406.681 222.927 408.175 224.421L410.297 222.299ZM403.759 218.097C401.296 217.089 398.674 216.59 395.906 216.59V219.59C398.305 219.59 400.539 220.021 402.623 220.873L403.759 218.097Z" fill="url(#paint0_linear_22_17)"/>
<defs>
<linearGradient id="paint0_linear_22_17" x1="223" y1="113" x2="223" y2="325" gradientUnits="userSpaceOnUse">
<stop stop-color="#FF0000"/>
<stop offset="1" stop-color="#4200FF"/>
</linearGradient>
</defs>
</svg>
