<svg width="435" height="116" viewBox="0 0 435 116" fill="none" xmlns="http://www.w3.org/2000/svg">
<path d="M48.5 3.26H65.395L112.67 113H90.35L80.12 87.89H32.535L22.615 113H0.76L48.5 3.26ZM73.3 71.15L56.405 26.51L39.2 71.15H73.3ZM122.133 95.95L164.448 54.41C167.858 51.1033 170.545 47.7967 172.508 44.49C174.575 41.08 175.608 37.205 175.608 32.865C175.608 27.6983 173.903 23.6167 170.493 20.62C167.187 17.52 163.053 15.97 158.093 15.97C152.823 15.97 148.587 17.7783 145.383 21.395C142.18 24.9083 140.217 29.3517 139.493 34.725L121.358 31.935C121.875 27.3883 123.167 23.2033 125.233 19.38C127.3 15.5567 129.935 12.25 133.138 9.45999C136.342 6.66999 140.062 4.49999 144.298 2.94999C148.638 1.29666 153.34 0.469998 158.403 0.469998C163.157 0.469998 167.703 1.14166 172.043 2.48499C176.487 3.82833 180.413 5.89499 183.823 8.68499C187.233 11.3717 189.92 14.73 191.883 18.76C193.95 22.6867 194.983 27.285 194.983 32.555C194.983 36.0683 194.518 39.375 193.588 42.475C192.658 45.4717 191.367 48.3133 189.713 51C188.163 53.6867 186.303 56.27 184.133 58.75C182.067 61.1267 179.793 63.4517 177.313 65.725L145.693 95.95H195.138V113H122.133V95.95ZM218.133 3.26H248.668L277.188 81.225H277.653L305.863 3.26H336.553V113H317.178V24.805H316.868L283.543 113H269.903L237.043 24.805H236.733V113H218.133V3.26ZM395.906 0.469998C400.659 0.469998 405.154 1.14166 409.391 2.48499C413.628 3.82833 417.296 5.79166 420.396 8.375C423.599 10.9583 426.079 14.11 427.836 17.83C429.696 21.4467 430.626 25.58 430.626 30.23C430.626 36.6367 429.024 41.9583 425.821 46.195C422.618 50.4317 418.536 53.3767 413.576 55.03V55.34C416.469 56.0633 419.156 57.2517 421.636 58.905C424.116 60.455 426.286 62.4183 428.146 64.795C430.006 67.0683 431.453 69.6517 432.486 72.545C433.623 75.4383 434.191 78.59 434.191 82C434.191 87.4767 433.158 92.3333 431.091 96.57C429.128 100.703 426.389 104.217 422.876 107.11C419.466 110.003 415.436 112.173 410.786 113.62C406.136 115.067 401.176 115.79 395.906 115.79C390.636 115.79 385.676 115.067 381.026 113.62C376.376 112.173 372.294 110.003 368.781 107.11C365.371 104.217 362.633 100.703 360.566 96.57C358.603 92.3333 357.621 87.4767 357.621 82C357.621 78.4867 358.189 75.2317 359.326 72.235C360.463 69.2383 361.961 66.6033 363.821 64.33C365.784 62.0567 368.006 60.1967 370.486 58.75C372.966 57.2 375.549 56.0633 378.236 55.34V55.03C373.276 53.2733 369.194 50.4317 365.991 46.505C362.788 42.5783 361.186 37.4117 361.186 31.005C361.186 26.355 362.064 22.17 363.821 18.45C365.681 14.6267 368.161 11.4233 371.261 8.83999C374.464 6.15333 378.133 4.08666 382.266 2.64C386.503 1.19333 391.049 0.469998 395.906 0.469998ZM395.906 15.815C391.256 15.815 387.433 17.21 384.436 20C381.543 22.79 380.096 26.5617 380.096 31.315C380.096 35.7583 381.491 39.53 384.281 42.63C387.174 45.73 391.049 47.28 395.906 47.28C398.076 47.28 400.143 46.8667 402.106 46.04C404.069 45.2133 405.774 44.0767 407.221 42.63C408.668 41.1833 409.804 39.4783 410.631 37.515C411.458 35.5517 411.871 33.485 411.871 31.315C411.871 28.9383 411.406 26.82 410.476 24.96C409.649 22.9967 408.461 21.3433 406.911 20C405.464 18.6567 403.759 17.6233 401.796 16.9C399.936 16.1767 397.973 15.815 395.906 15.815ZM395.906 63.09C393.219 63.09 390.688 63.555 388.311 64.485C386.038 65.415 384.023 66.7067 382.266 68.36C380.613 69.91 379.269 71.8733 378.236 74.25C377.306 76.5233 376.841 79.055 376.841 81.845C376.841 87.6317 378.649 92.1267 382.266 95.33C385.883 98.5333 390.429 100.135 395.906 100.135C401.279 100.135 405.774 98.5333 409.391 95.33C413.008 92.1267 414.816 87.6317 414.816 81.845C414.816 79.1583 414.299 76.6783 413.266 74.405C412.336 72.0283 410.993 70.0133 409.236 68.36C407.583 66.7067 405.568 65.415 403.191 64.485C400.918 63.555 398.489 63.09 395.906 63.09Z" fill="black"/>
<path d="M48.5 3.26V-2.24H44.8948L43.4566 1.06596L48.5 3.26ZM65.395 3.26L70.4462 1.08398L69.0143 -2.24H65.395V3.26ZM112.67 113V118.5H121.028L117.721 110.824L112.67 113ZM90.35 113L85.2565 115.075L86.6518 118.5H90.35V113ZM80.12 87.89L85.2135 85.8149L83.8182 82.39H80.12V87.89ZM32.535 87.89V82.39H28.7942L27.4197 85.8691L32.535 87.89ZM22.615 113V118.5H26.3558L27.7303 115.021L22.615 113ZM0.76 113L-4.28343 110.806L-7.63056 118.5H0.76V113ZM73.3 71.15V76.65H81.2623L78.4439 69.2032L73.3 71.15ZM56.405 26.51L61.5489 24.5632L56.4517 11.0953L51.273 24.532L56.405 26.51ZM39.2 71.15L34.068 69.172L31.1858 76.65H39.2V71.15ZM48.5 8.76H65.395V-2.24H48.5V8.76ZM60.3438 5.43602L107.619 115.176L117.721 110.824L70.4462 1.08398L60.3438 5.43602ZM112.67 107.5H90.35V118.5H112.67V107.5ZM95.4435 110.925L85.2135 85.8149L75.0265 89.9651L85.2565 115.075L95.4435 110.925ZM80.12 82.39H32.535V93.39H80.12V82.39ZM27.4197 85.8691L17.4997 110.979L27.7303 115.021L37.6503 89.9109L27.4197 85.8691ZM22.615 107.5H0.76V118.5H22.615V107.5ZM5.80343 115.194L53.5434 5.45403L43.4566 1.06596L-4.28343 110.806L5.80343 115.194ZM78.4439 69.2032L61.5489 24.5632L51.2611 28.4568L68.1561 73.0968L78.4439 69.2032ZM51.273 24.532L34.068 69.172L44.332 73.128L61.537 28.488L51.273 24.532ZM39.2 76.65H73.3V65.65H39.2V76.65ZM122.133 95.95L118.28 92.0251L116.633 93.642V95.95H122.133ZM164.448 54.41L160.62 50.4615L160.608 50.4733L160.595 50.4851L164.448 54.41ZM172.508 44.49L167.805 41.6393L167.792 41.6606L167.779 41.682L172.508 44.49ZM170.493 20.62L166.732 24.6325L166.796 24.693L166.863 24.7514L170.493 20.62ZM145.383 21.395L149.448 25.1006L149.474 25.0714L149.501 25.0417L145.383 21.395ZM139.493 34.725L138.657 40.161L144.197 41.0133L144.944 35.4588L139.493 34.725ZM121.358 31.935L115.894 31.314L115.297 36.5671L120.522 37.371L121.358 31.935ZM125.233 19.38L120.395 16.7647L120.395 16.7647L125.233 19.38ZM133.138 9.45999L129.526 5.31255L129.526 5.31255L133.138 9.45999ZM144.298 2.94999L146.188 8.11517L146.222 8.10265L146.256 8.08968L144.298 2.94999ZM172.043 2.48499L170.417 7.73907L170.435 7.74442L170.452 7.74965L172.043 2.48499ZM183.823 8.68499L180.341 12.9418L180.38 12.9738L180.42 13.0052L183.823 8.68499ZM191.883 18.76L186.939 21.1688L186.977 21.2458L187.016 21.3216L191.883 18.76ZM193.588 42.475L198.841 44.1052L198.849 44.0803L198.857 44.0554L193.588 42.475ZM189.713 51L185.029 48.1175L184.988 48.1839L184.949 48.2515L189.713 51ZM184.133 58.75L179.994 55.1282L179.989 55.1346L179.983 55.141L184.133 58.75ZM177.313 65.725L173.597 61.6707L173.555 61.7095L173.513 61.7492L177.313 65.725ZM145.693 95.95L141.893 91.9742L131.98 101.45H145.693V95.95ZM195.138 95.95H200.638V90.45H195.138V95.95ZM195.138 113V118.5H200.638V113H195.138ZM122.133 113H116.633V118.5H122.133V113ZM125.986 99.8749L168.301 58.3349L160.595 50.4851L118.28 92.0251L125.986 99.8749ZM168.277 58.3584C171.958 54.7891 174.976 51.1074 177.238 47.298L167.779 41.682C166.114 44.4859 163.759 47.4175 160.62 50.4615L168.277 58.3584ZM177.212 47.3407C179.845 42.9957 181.108 38.1182 181.108 32.865H170.108C170.108 36.2918 169.305 39.1643 167.805 41.6393L177.212 47.3407ZM181.108 32.865C181.108 26.3592 178.893 20.6797 174.124 16.4886L166.863 24.7514C168.914 26.5536 170.108 29.0374 170.108 32.865H181.108ZM174.255 16.6075C169.829 12.458 164.307 10.47 158.093 10.47V21.47C161.8 21.47 164.545 22.582 166.732 24.6325L174.255 16.6075ZM158.093 10.47C151.41 10.47 145.615 12.8379 141.266 17.7483L149.501 25.0417C151.558 22.7187 154.237 21.47 158.093 21.47V10.47ZM141.319 17.6893C137.26 22.1417 134.894 27.6704 134.043 33.9912L144.944 35.4588C145.54 31.033 147.101 27.6749 149.448 25.1006L141.319 17.6893ZM140.33 29.289L122.195 26.499L120.522 37.371L138.657 40.161L140.33 29.289ZM126.823 32.556C127.265 28.6706 128.357 25.1677 130.072 21.9953L120.395 16.7647C117.977 21.2389 116.485 26.1061 115.894 31.314L126.823 32.556ZM130.072 21.9953C131.832 18.7384 134.056 15.9543 136.751 13.6074L129.526 5.31255C125.814 8.5457 122.768 12.3749 120.395 16.7647L130.072 21.9953ZM136.751 13.6074C139.416 11.286 142.544 9.44856 146.188 8.11517L142.409 -2.21518C137.58 -0.448575 133.267 2.05401 129.526 5.31255L136.751 13.6074ZM146.256 8.08968C149.917 6.69519 153.949 5.97 158.403 5.97V-5.03C152.732 -5.03 147.36 -4.10186 142.341 -2.18969L146.256 8.08968ZM158.403 5.97C162.631 5.97 166.628 6.56617 170.417 7.73907L173.67 -2.76908C168.779 -4.28285 163.683 -5.03 158.403 -5.03V5.97ZM170.452 7.74965C174.242 8.89563 177.518 10.6327 180.341 12.9418L187.306 4.42823C183.308 1.1573 178.731 -1.23898 173.635 -2.77967L170.452 7.74965ZM180.42 13.0052C183.157 15.162 185.326 17.8589 186.939 21.1688L196.828 16.3512C194.514 11.6011 191.31 7.58133 187.227 4.36479L180.42 13.0052ZM187.016 21.3216C188.596 24.3228 189.483 28.0106 189.483 32.555H200.483C200.483 26.5593 199.304 21.0505 196.751 16.1984L187.016 21.3216ZM189.483 32.555C189.483 35.5786 189.084 38.3492 188.32 40.8946L198.857 44.0554C199.953 40.4008 200.483 36.5581 200.483 32.555H189.483ZM188.336 40.8448C187.543 43.3995 186.443 45.8207 185.029 48.1175L194.398 53.8825C196.291 50.806 197.774 47.5439 198.841 44.1052L188.336 40.8448ZM184.949 48.2515C183.59 50.6087 181.943 52.9015 179.994 55.1282L188.273 62.3718C190.664 59.6385 192.737 56.7646 194.477 53.7485L184.949 48.2515ZM179.983 55.141C178.061 57.351 175.934 59.5281 173.597 61.6707L181.03 69.7793C183.653 67.3753 186.072 64.9023 188.284 62.359L179.983 55.141ZM173.513 61.7492L141.893 91.9742L149.494 99.9258L181.114 69.7008L173.513 61.7492ZM145.693 101.45H195.138V90.45H145.693V101.45ZM189.638 95.95V113H200.638V95.95H189.638ZM195.138 107.5H122.133V118.5H195.138V107.5ZM127.633 113V95.95H116.633V113H127.633ZM218.133 3.26V-2.24H212.633V3.26H218.133ZM248.668 3.26L253.833 1.37052L252.512 -2.24H248.668V3.26ZM277.188 81.225L272.023 83.1145L273.343 86.725H277.188V81.225ZM277.653 81.225V86.725H281.512L282.825 83.0963L277.653 81.225ZM305.863 3.26V-2.24H302.004L300.691 1.38867L305.863 3.26ZM336.553 3.26H342.053V-2.24H336.553V3.26ZM336.553 113V118.5H342.053V113H336.553ZM317.178 113H311.678V118.5H317.178V113ZM317.178 24.805H322.678V19.305H317.178V24.805ZM316.868 24.805V19.305H313.067L311.723 22.8609L316.868 24.805ZM283.543 113V118.5H287.344L288.688 114.944L283.543 113ZM269.903 113L264.749 114.92L266.083 118.5H269.903V113ZM237.043 24.805L242.197 22.8847L240.863 19.305H237.043V24.805ZM236.733 24.805V19.305H231.233V24.805H236.733ZM236.733 113V118.5H242.233V113H236.733ZM218.133 113H212.633V118.5H218.133V113ZM218.133 8.76H248.668V-2.24H218.133V8.76ZM243.503 5.14948L272.023 83.1145L282.353 79.3355L253.833 1.37052L243.503 5.14948ZM277.188 86.725H277.653V75.725H277.188V86.725ZM282.825 83.0963L311.035 5.13133L300.691 1.38867L272.481 79.3537L282.825 83.0963ZM305.863 8.76H336.553V-2.24H305.863V8.76ZM331.053 3.26V113H342.053V3.26H331.053ZM336.553 107.5H317.178V118.5H336.553V107.5ZM322.678 113V24.805H311.678V113H322.678ZM317.178 19.305H316.868V30.305H317.178V19.305ZM311.723 22.8609L278.398 111.056L288.688 114.944L322.013 26.7491L311.723 22.8609ZM283.543 107.5H269.903V118.5H283.543V107.5ZM275.057 111.08L242.197 22.8847L231.889 26.7253L264.749 114.92L275.057 111.08ZM237.043 19.305H236.733V30.305H237.043V19.305ZM231.233 24.805V113H242.233V24.805H231.233ZM236.733 107.5H218.133V118.5H236.733V107.5ZM223.633 113V3.26H212.633V113H223.633ZM409.391 2.48499L411.053 -2.75778L411.053 -2.75778L409.391 2.48499ZM420.396 8.375L416.875 12.6002L416.909 12.6285L416.943 12.6563L420.396 8.375ZM427.836 17.83L422.862 20.1785L422.902 20.2627L422.945 20.3454L427.836 17.83ZM425.821 46.195L421.434 42.8779L425.821 46.195ZM413.576 55.03L411.837 49.8122L408.076 51.0658V55.03H413.576ZM413.576 55.34H408.076V59.6343L412.242 60.6758L413.576 55.34ZM421.636 58.905L418.585 63.4813L418.652 63.5261L418.721 63.569L421.636 58.905ZM428.146 64.795L423.815 68.1847L423.851 68.2317L423.889 68.2778L428.146 64.795ZM432.486 72.545L427.306 74.3948L427.335 74.4759L427.367 74.5561L432.486 72.545ZM431.091 96.57L426.148 94.1587L426.135 94.1844L426.123 94.2102L431.091 96.57ZM422.876 107.11L419.379 102.864L419.348 102.89L419.317 102.916L422.876 107.11ZM410.786 113.62L412.42 118.872L412.42 118.872L410.786 113.62ZM368.781 107.11L365.222 111.304L365.253 111.33L365.284 111.356L368.781 107.11ZM360.566 96.57L355.576 98.8825L355.61 98.9566L355.647 99.0297L360.566 96.57ZM359.326 72.235L364.468 74.1856L364.468 74.1856L359.326 72.235ZM363.821 64.33L359.658 60.7351L359.61 60.7905L359.564 60.8472L363.821 64.33ZM370.486 58.75L373.257 63.5008L373.33 63.4585L373.401 63.414L370.486 58.75ZM378.236 55.34L379.666 60.6509L383.736 59.5551V55.34H378.236ZM378.236 55.03H383.736V51.1432L380.072 49.8455L378.236 55.03ZM365.991 46.505L361.729 49.9817L365.991 46.505ZM363.821 18.45L358.875 16.0439L358.861 16.0726L358.847 16.1015L363.821 18.45ZM371.261 8.83999L374.782 13.0652L374.789 13.0596L374.795 13.054L371.261 8.83999ZM382.266 2.64L380.489 -2.56493L380.469 -2.55815L380.449 -2.55122L382.266 2.64ZM384.436 20L380.688 15.9746L380.653 16.0074L380.618 16.0409L384.436 20ZM384.281 42.63L380.193 46.3093L380.226 46.3463L380.26 46.3827L384.281 42.63ZM402.106 46.04L404.24 51.109L404.24 51.109L402.106 46.04ZM410.631 37.515L405.562 35.3807L405.562 35.3807L410.631 37.515ZM410.476 24.96L405.407 27.0943L405.476 27.2594L405.557 27.4197L410.476 24.96ZM406.911 20L403.168 24.0304L403.237 24.0945L403.309 24.1563L406.911 20ZM401.796 16.9L399.802 22.026L399.848 22.0439L399.894 22.0609L401.796 16.9ZM388.311 64.485L386.307 59.3632L386.267 59.3785L386.228 59.3945L388.311 64.485ZM382.266 68.36L386.028 72.3725L386.035 72.3651L382.266 68.36ZM378.236 74.25L373.192 72.057L373.168 72.112L373.145 72.1675L378.236 74.25ZM382.266 95.33L378.619 99.4472L382.266 95.33ZM409.391 95.33L413.038 99.4472L409.391 95.33ZM413.266 74.405L408.144 76.4092L408.198 76.5466L408.259 76.6809L413.266 74.405ZM409.236 68.36L405.347 72.2491L405.406 72.308L405.466 72.3651L409.236 68.36ZM403.191 64.485L401.108 69.5755L401.147 69.5915L401.187 69.6068L403.191 64.485ZM395.906 5.97C400.134 5.97 404.066 6.56636 407.729 7.72776L411.053 -2.75778C406.243 -4.28304 401.184 -5.03 395.906 -5.03V5.97ZM407.729 7.72776C411.355 8.87751 414.376 10.5176 416.875 12.6002L423.917 4.14978C420.216 1.06576 415.9 -1.22086 411.053 -2.75778L407.729 7.72776ZM416.943 12.6563C419.5 14.7186 421.46 17.2095 422.862 20.1785L432.809 15.4815C430.698 11.0104 427.698 7.19809 423.849 4.09373L416.943 12.6563ZM422.945 20.3454C424.351 23.079 425.126 26.3287 425.126 30.23H436.126C436.126 24.8313 435.041 19.8143 432.727 15.3146L422.945 20.3454ZM425.126 30.23C425.126 35.6931 423.776 39.7807 421.434 42.8779L430.208 49.5121C434.273 44.136 436.126 37.5802 436.126 30.23H425.126ZM421.434 42.8779C418.889 46.2431 415.724 48.5163 411.837 49.8122L415.315 60.2478C421.347 58.237 426.346 54.6203 430.208 49.5121L421.434 42.8779ZM408.076 55.03V55.34H419.076V55.03H408.076ZM412.242 60.6758C414.524 61.2463 416.63 62.1779 418.585 63.4813L424.687 54.3287C421.682 52.3255 418.414 50.8804 414.91 50.0042L412.242 60.6758ZM418.721 63.569C420.641 64.769 422.336 66.2956 423.815 68.1847L432.477 61.4053C430.236 58.5411 427.591 56.141 424.551 54.241L418.721 63.569ZM423.889 68.2778C425.332 70.0415 426.475 72.0671 427.306 74.3948L437.665 70.6952C436.43 67.2362 434.68 64.0951 432.403 61.3122L423.889 68.2778ZM427.367 74.5561C428.228 76.7494 428.691 79.2114 428.691 82H439.691C439.691 77.9686 439.017 74.1273 437.605 70.5339L427.367 74.5561ZM428.691 82C428.691 86.776 427.793 90.7856 426.148 94.1587L436.034 98.9813C438.522 93.8811 439.691 88.1774 439.691 82H428.691ZM426.123 94.2102C424.504 97.6186 422.266 100.487 419.379 102.864L426.372 111.356C430.512 107.946 433.751 103.788 436.059 98.9298L426.123 94.2102ZM419.317 102.916C416.52 105.29 413.159 107.122 409.152 108.368L412.42 118.872C417.713 117.225 422.412 114.717 426.434 111.304L419.317 102.916ZM409.152 108.368C405.073 109.637 400.667 110.29 395.906 110.29V121.29C401.685 121.29 407.199 120.496 412.42 118.872L409.152 108.368ZM395.906 110.29C391.145 110.29 386.739 109.637 382.66 108.368L379.392 118.872C384.613 120.496 390.127 121.29 395.906 121.29V110.29ZM382.66 108.368C378.642 107.118 375.203 105.274 372.277 102.864L365.284 111.356C369.385 114.733 374.11 117.228 379.392 118.872L382.66 108.368ZM372.339 102.916C369.514 100.519 367.231 97.6023 365.485 94.1103L355.647 99.0297C358.034 103.804 361.227 107.914 365.222 111.304L372.339 102.916ZM365.556 94.2575C363.982 90.8602 363.121 86.8149 363.121 82H352.121C352.121 88.1385 353.223 93.8065 355.576 98.8825L365.556 94.2575ZM363.121 82C363.121 79.089 363.59 76.5018 364.468 74.1856L354.183 70.2844C352.789 73.9615 352.121 77.8843 352.121 82H363.121ZM364.468 74.1856C365.414 71.6937 366.626 69.5866 368.078 67.8128L359.564 60.8472C357.295 63.6201 355.512 66.783 354.183 70.2844L364.468 74.1856ZM367.983 67.9249C369.568 66.0896 371.325 64.6276 373.257 63.5008L367.715 53.9992C364.686 55.7657 362 58.0237 359.658 60.7351L367.983 67.9249ZM373.401 63.414C375.444 62.137 377.53 61.226 379.666 60.6509L376.806 50.0291C373.569 50.9007 370.488 52.263 367.571 54.086L373.401 63.414ZM383.736 55.34V55.03H372.736V55.34H383.736ZM380.072 49.8455C376.024 48.4117 372.794 46.1435 370.253 43.0283L361.729 49.9817C365.594 54.7198 370.528 58.135 376.4 60.2144L380.072 49.8455ZM370.253 43.0283C368.043 40.3192 366.686 36.4869 366.686 31.005H355.686C355.686 38.3364 357.532 44.8374 361.729 49.9817L370.253 43.0283ZM366.686 31.005C366.686 27.0609 367.427 23.6938 368.794 20.7985L358.847 16.1015C356.701 20.6462 355.686 25.6491 355.686 31.005H366.686ZM368.767 20.8561C370.305 17.6948 372.312 15.1233 374.782 13.0652L367.74 4.61478C364.01 7.72336 361.057 11.5585 358.875 16.0439L368.767 20.8561ZM374.795 13.054C377.466 10.8141 380.546 9.06905 384.083 7.83122L380.449 -2.55122C375.719 -0.895725 371.463 1.49251 367.726 4.62594L374.795 13.054ZM384.043 7.84492C387.661 6.60953 391.603 5.97 395.906 5.97V-5.03C390.496 -5.03 385.344 -4.22287 380.489 -2.56493L384.043 7.84492ZM395.906 10.315C390.068 10.315 384.842 12.1069 380.688 15.9746L388.184 24.0254C390.023 22.313 392.443 21.315 395.906 21.315V10.315ZM380.618 16.0409C376.455 20.0557 374.596 25.3632 374.596 31.315H385.596C385.596 27.7601 386.631 25.5243 388.254 23.9591L380.618 16.0409ZM374.596 31.315C374.596 37.0201 376.431 42.1296 380.193 46.3093L388.369 38.9507C386.551 36.9304 385.596 34.4965 385.596 31.315H374.596ZM380.26 46.3827C384.349 50.7634 389.768 52.78 395.906 52.78V41.78C392.33 41.78 390 40.6966 388.302 38.8772L380.26 46.3827ZM395.906 52.78C398.795 52.78 401.588 52.2255 404.24 51.109L399.972 40.971C398.697 41.5078 397.357 41.78 395.906 41.78V52.78ZM404.24 51.109C406.832 50.0178 409.139 48.4896 411.11 46.5191L403.332 38.7409C402.409 39.6638 401.307 40.4088 399.972 40.971L404.24 51.109ZM411.11 46.5191C413.08 44.5486 414.609 42.2408 415.7 39.6493L405.562 35.3807C405 36.7158 404.255 37.818 403.332 38.7409L411.11 46.5191ZM415.7 39.6493C416.816 36.9976 417.371 34.204 417.371 31.315H406.371C406.371 32.766 406.099 34.1058 405.562 35.3807L415.7 39.6493ZM417.371 31.315C417.371 28.207 416.758 25.2266 415.395 22.5003L405.557 27.4197C406.053 28.4134 406.371 29.6696 406.371 31.315H417.371ZM415.545 22.8257C414.404 20.1157 412.725 17.7612 410.513 15.8437L403.309 24.1563C404.196 24.9255 404.895 25.8776 405.407 27.0943L415.545 22.8257ZM410.653 15.9696C408.642 14.1023 406.302 12.6986 403.697 11.7391L399.894 22.0609C401.217 22.5481 402.286 23.2111 403.168 24.0304L410.653 15.9696ZM403.789 11.774C401.271 10.7947 398.63 10.315 395.906 10.315V21.315C397.315 21.315 398.601 21.5586 399.802 22.026L403.789 11.774ZM395.906 57.59C392.57 57.59 389.355 58.1702 386.307 59.3632L390.315 69.6068C392.02 68.9397 393.868 68.59 395.906 68.59V57.59ZM386.228 59.3945C383.343 60.5751 380.753 62.2309 378.496 64.3549L386.035 72.3651C387.292 71.1824 388.733 70.2549 390.393 69.5755L386.228 59.3945ZM378.504 64.3475C376.231 66.4788 374.482 69.091 373.192 72.057L383.28 76.443C384.057 74.6557 384.994 73.3412 386.028 72.3725L378.504 64.3475ZM373.145 72.1675C371.911 75.1856 371.341 78.4373 371.341 81.845H382.341C382.341 79.6727 382.701 77.861 383.326 76.3325L373.145 72.1675ZM371.341 81.845C371.341 88.866 373.591 94.9939 378.619 99.4472L385.913 91.2128C383.707 89.2594 382.341 86.3973 382.341 81.845H371.341ZM378.619 99.4472C383.377 103.661 389.277 105.635 395.906 105.635V94.635C391.581 94.635 388.388 93.4057 385.913 91.2128L378.619 99.4472ZM395.906 105.635C402.461 105.635 408.3 103.643 413.038 99.4472L405.744 91.2128C403.248 93.4233 400.098 94.635 395.906 94.635V105.635ZM413.038 99.4472C418.065 94.9939 420.316 88.866 420.316 81.845H409.316C409.316 86.3973 407.95 89.2594 405.744 91.2128L413.038 99.4472ZM420.316 81.845C420.316 78.4337 419.655 75.1703 418.273 72.1291L408.259 76.6809C408.943 78.1864 409.316 79.883 409.316 81.845H420.316ZM418.388 72.4008C417.178 69.3102 415.39 66.599 413.005 64.3549L405.466 72.3651C406.595 73.4277 407.493 74.7465 408.144 76.4092L418.388 72.4008ZM413.125 64.4709C410.888 62.2336 408.213 60.5441 405.195 59.3632L401.187 69.6068C402.922 70.2859 404.277 71.1797 405.347 72.2491L413.125 64.4709ZM405.273 59.3945C402.305 58.1802 399.166 57.59 395.906 57.59V68.59C397.813 68.59 399.53 68.9298 401.108 69.5755L405.273 59.3945Z" fill="url(#paint0_linear_26_7)"/>
<defs>
<linearGradient id="paint0_linear_26_7" x1="223" y1="-42" x2="223" y2="170" gradientUnits="userSpaceOnUse">
<stop stop-color="#FF0000"/>
<stop offset="1" stop-color="#4200FF"/>
</linearGradient>
</defs>
</svg>
